<svg xmlns="http://www.w3.org/2000/svg" xmlns:xlink="http://www.w3.org/1999/xlink" viewBox="0 0 476 590" width="476" height="590" preserveAspectRatio="xMidYMid meet" style="width: 100%; height: 100%; transform: translate3d(0px, 0px, 0px); content-visibility: visible;"><defs><clipPath id="__lottie_element_94"><rect width="476" height="590" x="0" y="0"></rect></clipPath></defs><g clip-path="url(#__lottie_element_94)"><g transform="matrix(0.5536820292472839,0.018768029287457466,-0.018768029287457466,0.5536820292472839,291.869873046875,297.15350341796875)" opacity="1" style="display: block;"><g opacity="1" transform="matrix(1,0,0,1,0,0)"><path stroke-linecap="round" stroke-linejoin="round" fill-opacity="0" stroke="rgb(136,193,248)" stroke-opacity="1" stroke-width="116" d=" M-196.92100524902344,-33.98099899291992 C-196.92100524902344,-33.98099899291992 -211.75900268554688,-143.2790069580078 -264.5769958496094,-224.91400146484375 C-317.63299560546875,-306.9179992675781 -384.9490051269531,-364.0270080566406 -384.9490051269531,-364.0270080566406"></path></g></g><g transform="matrix(0.5499147772789001,0.06715473532676697,-0.06715473532676697,0.5499147772789001,100.04695892333984,71.13688659667969)" opacity="1" style="display: block;"><g opacity="1" transform="matrix(1,0,0,1,0,0)"><path fill="rgb(136,193,248)" fill-opacity="1" d=" M-7.741000175476074,45.75600051879883 C-11.116999626159668,47.145999908447266 -14.994000434875488,46.1510009765625 -17.29199981689453,43.3129997253418 C-22.434999465942383,36.96200180053711 -29.66200065612793,24.136999130249023 -24.283000946044922,6.251999855041504 C-21.270999908447266,-3.7639999389648438 -11.631999969482422,-10.727999687194824 -0.9599999785423279,-17.26099967956543 C-0.9599999785423279,-17.26099967956543 0.2240000069141388,-36.560001373291016 0.2240000069141388,-36.560001373291016 C0.2240000069141388,-36.560001373291016 0.33399999141693115,-46.85900115966797 10.069000244140625,-46.36000061035156 C20.093000411987305,-45.84600067138672 18.570999145507812,-34.74300003051758 18.570999145507812,-34.74300003051758 C18.570999145507812,-34.74300003051758 16.979999542236328,-8.027999877929688 16.979999542236328,-8.027999877929688 C16.979999542236328,-8.027999877929688 24.048999786376953,7.769999980926514 24.048999786376953,7.769999980926514 C28.711000442504883,17.259000778198242 25.538999557495117,28.92099952697754 16.452999114990234,34.32699966430664 C16.104000091552734,34.53499984741211 15.744999885559082,34.737998962402344 15.375,34.93899917602539 C6.923999786376953,39.516998291015625 -2.197999954223633,43.4739990234375 -7.741000175476074,45.75600051879883z"></path></g></g><g transform="matrix(0.5499147772789001,0.06715473532676697,-0.06715473532676697,0.5499147772789001,100.04695892333984,71.13688659667969)" opacity="1" style="display: block;"><g opacity="1" transform="matrix(1,0,0,1,0,0)"><path stroke-linecap="round" stroke-linejoin="round" fill-opacity="0" stroke="rgb(0,0,0)" stroke-opacity="1" stroke-width="2" d=" M-16.538000106811523,44.12699890136719 C-16.804000854492188,43.875999450683594 -17.055999755859375,43.604000091552734 -17.29199981689453,43.3129997253418 C-22.434999465942383,36.96200180053711 -29.66200065612793,24.136999130249023 -24.283000946044922,6.251999855041504 C-21.42799949645996,-3.240999937057495 -12.621000289916992,-9.991999626159668 -2.622999906539917,-16.232999801635742"></path></g></g><g transform="matrix(0.5486590266227722,0.07674184441566467,-0.07674184441566467,0.5486590266227722,79.39952850341797,51.018646240234375)" opacity="1" style="display: block;"><g opacity="1" transform="matrix(1,0,0,1,0,0)"><path fill="rgb(255,255,255)" fill-opacity="1" d=" M-11.57800006866455,-13.666999816894531 C-11.57800006866455,-13.666999816894531 11.57800006866455,13.666999816894531 11.57800006866455,13.666999816894531"></path><path stroke-linecap="round" stroke-linejoin="round" fill-opacity="0" stroke="rgb(136,193,248)" stroke-opacity="1" stroke-width="14" d=" M-11.57800006866455,-13.666999816894531 C-11.57800006866455,-13.666999816894531 11.57800006866455,13.666999816894531 11.57800006866455,13.666999816894531"></path></g></g><g transform="matrix(0.5532596707344055,0.02863103710114956,-0.02863103710114956,0.5532596707344055,64.37335205078125,56.765316009521484)" opacity="1" style="display: block;"><g opacity="1" transform="matrix(1,0,0,1,0,0)"><path fill="rgb(255,255,255)" fill-opacity="1" d=" M-11.57800006866455,-13.666999816894531 C-11.57800006866455,-13.666999816894531 11.57800006866455,13.666999816894531 11.57800006866455,13.666999816894531"></path><path stroke-linecap="round" stroke-linejoin="round" fill-opacity="0" stroke="rgb(136,193,248)" stroke-opacity="1" stroke-width="14" d=" M-11.57800006866455,-13.666999816894531 C-11.57800006866455,-13.666999816894531 11.57800006866455,13.666999816894531 11.57800006866455,13.666999816894531"></path></g></g><g transform="matrix(0.5536497235298157,-0.01969767175614834,0.01969767175614834,0.5536497235298157,53.18150329589844,68.05680847167969)" opacity="1" style="display: block;"><g opacity="1" transform="matrix(1,0,0,1,0,0)"><path fill="rgb(255,255,255)" fill-opacity="1" d=" M-11.57800006866455,-13.666999816894531 C-11.57800006866455,-13.666999816894531 11.57800006866455,13.666999816894531 11.57800006866455,13.666999816894531"></path><path stroke-linecap="round" stroke-linejoin="round" fill-opacity="0" stroke="rgb(136,193,248)" stroke-opacity="1" stroke-width="14" d=" M-11.57800006866455,-13.666999816894531 C-11.57800006866455,-13.666999816894531 11.57800006866455,13.666999816894531 11.57800006866455,13.666999816894531"></path></g></g><g transform="matrix(0.5536425113677979,-0.019900592043995857,0.019900592043995857,0.5536425113677979,51.73251724243164,88.40471649169922)" opacity="1" style="display: block;"><g opacity="1" transform="matrix(1,0,0,1,0,0)"><path fill="rgb(255,255,255)" fill-opacity="1" d=" M-11.57800006866455,-13.666999816894531 C-11.57800006866455,-13.666999816894531 11.57800006866455,13.666999816894531 11.57800006866455,13.666999816894531"></path><path stroke-linecap="round" stroke-linejoin="round" fill-opacity="0" stroke="rgb(136,193,248)" stroke-opacity="1" stroke-width="14" d=" M-11.57800006866455,-13.666999816894531 C-11.57800006866455,-13.666999816894531 11.57800006866455,13.666999816894531 11.57800006866455,13.666999816894531"></path></g></g><g transform="matrix(0.5536820292472839,0.018768029287457466,-0.018768029287457466,0.5536820292472839,291.869873046875,297.15350341796875)" opacity="1" style="display: block;"><g opacity="1" transform="matrix(1,0,0,1,0,0)"><path stroke-linecap="butt" stroke-linejoin="miter" fill-opacity="0" stroke-miterlimit="4" stroke="rgb(43,61,115)" stroke-opacity="1" stroke-width="117" d=" M-196.92100524902344,-33.98099899291992 C-196.92100524902344,-33.98099899291992 -211.75900268554688,-143.2790069580078 -264.5769958496094,-224.91400146484375 C-275.14599609375,-241.25 -286.281005859375,-256.5979919433594 -297.3370056152344,-270.7030029296875"></path></g></g><g transform="matrix(0.5518736243247986,-0.048492442816495895,0.048492442816495895,0.5518736243247986,312.6548156738281,281.58587646484375)" opacity="1" style="display: block;"><g opacity="1" transform="matrix(1,0,0,1,0,0)"><path stroke-linecap="round" stroke-linejoin="round" fill-opacity="0" stroke="rgb(136,193,248)" stroke-opacity="1" stroke-width="116" d=" M-14.454999923706055,-49.224998474121094 C-14.454999923706055,-49.224998474121094 -11.333999633789062,-159.4810028076172 -50.18299865722656,-248.61500549316406 C-89.20700073242188,-338.1510009765625 -146.3459930419922,-405.4410095214844 -146.3459930419922,-405.4410095214844"></path></g></g><g transform="matrix(0.5540000200271606,-0.0000059090884860779624,0.0000059090884860779624,0.5540000200271606,178.79478454589844,52.07067108154297)" opacity="1" style="display: block;"><g opacity="1" transform="matrix(1,0,0,1,0,0)"><path fill="rgb(255,255,255)" fill-opacity="1" d=" M-11.442999839782715,-13.779000282287598 C-11.442999839782715,-13.779000282287598 11.442999839782715,13.779000282287598 11.442999839782715,13.779000282287598"></path><path stroke-linecap="round" stroke-linejoin="round" fill-opacity="0" stroke="rgb(136,193,248)" stroke-opacity="1" stroke-width="14" d=" M-11.442999839782715,-13.779000282287598 C-11.442999839782715,-13.779000282287598 11.442999839782715,13.779000282287598 11.442999839782715,13.779000282287598"></path></g></g><g transform="matrix(0.5540000200271606,-0.0000059090884860779624,0.0000059090884860779624,0.5540000200271606,187.9989471435547,39.913970947265625)" opacity="1" style="display: block;"><g opacity="1" transform="matrix(1,0,0,1,0,0)"><path fill="rgb(255,255,255)" fill-opacity="1" d=" M-11.442999839782715,-13.779000282287598 C-11.442999839782715,-13.779000282287598 11.442999839782715,13.779000282287598 11.442999839782715,13.779000282287598"></path><path stroke-linecap="round" stroke-linejoin="round" fill-opacity="0" stroke="rgb(136,193,248)" stroke-opacity="1" stroke-width="14" d=" M-11.442999839782715,-13.779000282287598 C-11.442999839782715,-13.779000282287598 11.442999839782715,13.779000282287598 11.442999839782715,13.779000282287598"></path></g></g><g transform="matrix(0.5540000200271606,-0.0000059090884860779624,0.0000059090884860779624,0.5540000200271606,203.00473022460938,32.42845916748047)" opacity="1" style="display: block;"><g opacity="1" transform="matrix(1,0,0,1,0,0)"><path fill="rgb(255,255,255)" fill-opacity="1" d=" M-11.442999839782715,-13.779000282287598 C-11.442999839782715,-13.779000282287598 11.442999839782715,13.779000282287598 11.442999839782715,13.779000282287598"></path><path stroke-linecap="round" stroke-linejoin="round" fill-opacity="0" stroke="rgb(136,193,248)" stroke-opacity="1" stroke-width="14" d=" M-11.442999839782715,-13.779000282287598 C-11.442999839782715,-13.779000282287598 11.442999839782715,13.779000282287598 11.442999839782715,13.779000282287598"></path></g></g><g transform="matrix(0.5540000200271606,-0.0000059090884860779624,0.0000059090884860779624,0.5540000200271606,222.05523681640625,34.7714729309082)" opacity="1" style="display: block;"><g opacity="1" transform="matrix(1,0,0,1,0,0)"><path fill="rgb(136,193,248)" fill-opacity="1" d=" M-11.442999839782715,-13.779000282287598 C-11.442999839782715,-13.779000282287598 11.442999839782715,13.779000282287598 11.442999839782715,13.779000282287598"></path><path stroke-linecap="round" stroke-linejoin="round" fill-opacity="0" stroke="rgb(136,193,248)" stroke-opacity="1" stroke-width="14" d=" M-11.442999839782715,-13.779000282287598 C-11.442999839782715,-13.779000282287598 11.442999839782715,13.779000282287598 11.442999839782715,13.779000282287598"></path></g></g><g transform="matrix(0.5539014935493469,-0.010447943583130836,0.010447943583130836,0.5539014935493469,297.4299011230469,287.3260498046875)" opacity="1" style="display: block;"><g opacity="1" transform="matrix(1,0,0,1,0,0)"><path stroke-linecap="round" stroke-linejoin="round" fill-opacity="0" stroke="rgb(0,0,0)" stroke-opacity="1" stroke-width="3" d=" M-88.88999938964844,-421.8550109863281 C-84.21199798583984,-415.2590026855469 -79.35199737548828,-408.9909973144531 -74.22699737548828,-402.385986328125"></path></g><g opacity="1" transform="matrix(1,0,0,1,0,0)"><path stroke-linecap="round" stroke-linejoin="round" fill-opacity="0" stroke="rgb(0,0,0)" stroke-opacity="1" stroke-width="3" d=" M-105.7770004272461,-445.0989990234375 C-102.81800079345703,-442.3680114746094 -100.12000274658203,-439.0950012207031 -97.75399780273438,-435.23699951171875 C-96.27899932861328,-432.8320007324219 -94.79000091552734,-430.5090026855469 -93.28399658203125,-428.2449951171875"></path></g><g opacity="1" transform="matrix(1,0,0,1,0,0)"><path stroke-linecap="round" stroke-linejoin="round" fill-opacity="0" stroke="rgb(0,0,0)" stroke-opacity="1" stroke-width="3" d=" M-128.49400329589844,-455.75799560546875 C-122.63999938964844,-454.90301513671875 -117.02799987792969,-452.97198486328125 -111.93299865722656,-449.7969970703125"></path></g><g opacity="1" transform="matrix(1,0,0,1,0,0)"><path stroke-linecap="round" stroke-linejoin="round" fill-opacity="0" stroke="rgb(0,0,0)" stroke-opacity="1" stroke-width="3" d=" M-149.3939971923828,-454.6570129394531 C-146.11900329589844,-455.4219970703125 -142.8209991455078,-455.9289855957031 -139.54600524902344,-456.1499938964844"></path></g></g><g transform="matrix(0.5518736243247986,-0.048492442816495895,0.048492442816495895,0.5518736243247986,312.6548156738281,281.58587646484375)" opacity="1" style="display: block;"><g opacity="1" transform="matrix(1,0,0,1,0,0)"><path stroke-linecap="butt" stroke-linejoin="miter" fill-opacity="0" stroke-miterlimit="4" stroke="rgb(43,61,115)" stroke-opacity="1" stroke-width="117" d=" M-14.454999923706055,-49.224998474121094 C-14.454999923706055,-49.224998474121094 -11.333999633789062,-159.4810028076172 -50.18299865722656,-248.61500549316406 C-59.952999114990234,-271.031005859375 -70.85900115966797,-292.0539855957031 -81.71900177001953,-310.9739990234375"></path></g></g><g transform="matrix(0.5540000200271606,-0.0000059090884860779624,0.0000059090884860779624,0.5540000200271606,295.8933410644531,294.0233459472656)" opacity="1" style="display: block;"><g opacity="1" transform="matrix(1,0,0,1,0,0)"><path fill="rgb(136,193,248)" fill-opacity="1" d=" M-138.968994140625,-389.39300537109375 C-137.1580047607422,-392.56298828125 -137.6479949951172,-396.5360107421875 -140.16799926757812,-399.1780090332031 C-145.80799865722656,-405.0929870605469 -157.60299682617188,-413.9020080566406 -176.0290069580078,-410.8590087890625 C-186.34800720214844,-409.1549987792969 -194.48800659179688,-400.48699951171875 -202.3350067138672,-390.739990234375 C-202.3350067138672,-390.739990234375 -221.6269989013672,-392.0379943847656 -221.6269989013672,-392.0379943847656 C-221.6269989013672,-392.0379943847656 -231.8560028076172,-393.2489929199219 -232.60800170898438,-383.5299987792969 C-233.3820037841797,-373.52301025390625 -222.17599487304688,-373.6099853515625 -222.17599487304688,-373.6099853515625 C-222.17599487304688,-373.6099853515625 -195.4770050048828,-371.7650146484375 -195.4770050048828,-371.7650146484375 C-195.4770050048828,-371.7650146484375 -180.71400451660156,-362.73199462890625 -180.71400451660156,-362.73199462890625 C-171.89999389648438,-356.8919982910156 -159.92799377441406,-358.5429992675781 -153.4029998779297,-366.86199951171875 C-153.1529998779297,-367.1809997558594 -152.9040069580078,-367.5119934082031 -152.6580047607422,-367.8529968261719 C-147.03599548339844,-375.64801025390625 -141.9429931640625,-384.18798828125 -138.968994140625,-389.39300537109375z"></path></g></g><g transform="matrix(0.5540000200271606,-0.0000059090884860779624,0.0000059090884860779624,0.5540000200271606,295.8933410644531,294.0233459472656)" opacity="1" style="display: block;"><g opacity="1" transform="matrix(1,0,0,1,0,0)"><path stroke-linecap="round" stroke-linejoin="round" fill-opacity="0" stroke="rgb(0,0,0)" stroke-opacity="1" stroke-width="2" d=" M-141.0469970703125,-400.0719909667969 C-146.98699951171875,-405.9330139160156 -158.51100158691406,-413.75201416015625 -176.0290069580078,-410.8590087890625 C-185.41600036621094,-409.3089904785156 -192.99899291992188,-401.99700927734375 -200.19900512695312,-393.35101318359375"></path></g></g><g transform="matrix(2.7699999809265137,0,0,2.7699999809265137,601.3599853515625,337.1860046386719)" opacity="1" style="display: block;"><g opacity="1" transform="matrix(1,0,0,1,0.25,0)"><path fill="rgb(43,61,115)" fill-opacity="1" d=" M-91.06900024414062,-28.368999481201172 C-91.06900024414062,-6.806000232696533 -108.5479965209961,10.673999786376953 -130.11099243164062,10.673999786376953 C-151.6739959716797,10.673999786376953 -169.1540069580078,-6.806000232696533 -169.1540069580078,-28.368999481201172 C-169.1540069580078,-49.93199920654297 -151.6739959716797,-67.41200256347656 -130.11099243164062,-67.41200256347656 C-108.5479965209961,-67.41200256347656 -91.06900024414062,-49.93199920654297 -91.06900024414062,-28.368999481201172z"></path></g><g opacity="1" transform="matrix(1,0,0,1,0,0)"><path fill="rgb(43,61,115)" fill-opacity="1" d=" M-67.48799896240234,24.724000930786133 C-59.97600173950195,28.04400062561035 -56.58300018310547,36.823001861572266 -59.915000915527344,44.32099914550781 C-59.915000915527344,44.32099914550781 -98.03199768066406,27.437000274658203 -98.03199768066406,27.437000274658203 C-98.03199768066406,27.437000274658203 -92,13.866000175476074 -92,13.866000175476074 C-92,13.866000175476074 -91.97799682617188,13.87600040435791 -91.97799682617188,13.87600040435791 C-91.97799682617188,13.87600040435791 -92.06800079345703,14.081999778747559 -92.06800079345703,14.081999778747559 C-92.06800079345703,14.081999778747559 -70.34300231933594,23.628000259399414 -70.34300231933594,23.628000259399414 C-70.34300231933594,23.628000259399414 -70.28199768066406,23.490999221801758 -70.28199768066406,23.490999221801758 C-70.28199768066406,23.490999221801758 -67.48799896240234,24.724000930786133 -67.48799896240234,24.724000930786133z"></path></g><g opacity="1" transform="matrix(1,0,0,1,0,0)"><path fill="rgb(43,61,115)" fill-opacity="1" d=" M-151.1300048828125,67.71900177001953 C-143.6179962158203,71.0469970703125 -140.23399353027344,79.81700134277344 -143.56500244140625,87.31500244140625 C-143.56500244140625,87.31500244140625 -181.68299865722656,70.43900299072266 -181.68299865722656,70.43900299072266 C-181.68299865722656,70.43900299072266 -175.6510009765625,56.86000061035156 -175.6510009765625,56.86000061035156 C-175.6510009765625,56.86000061035156 -175.6199951171875,56.87099838256836 -175.6199951171875,56.87099838256836 C-175.6199951171875,56.87099838256836 -175.6300048828125,56.89400100708008 -175.6300048828125,56.89400100708008 C-175.6300048828125,56.89400100708008 -153.9929962158203,66.45500183105469 -153.9929962158203,66.45500183105469 C-153.9929962158203,66.45500183105469 -151.1300048828125,67.71900177001953 -151.1300048828125,67.71900177001953z"></path></g><g opacity="1" transform="matrix(1,0,0,1,0,0)"><path fill="rgb(240,78,55)" fill-opacity="1" d=" M-129.33900451660156,10.303000450134277 C-129.33900451660156,10.303000450134277 -153.89700317382812,66.44000244140625 -153.89700317382812,66.44000244140625 C-153.89700317382812,66.44000244140625 -175.6300048828125,56.89400100708008 -175.6300048828125,56.89400100708008 C-175.6300048828125,56.89400100708008 -152.23899841308594,3.4019999504089355 -152.23899841308594,3.4019999504089355 C-158.4080047607422,-0.8730000257492065 -163.25,-6.866000175476074 -166.11099243164062,-13.817999839782715 C-166.11099243164062,-13.817999839782715 -108.50900268554688,-39.301998138427734 -108.50900268554688,-39.301998138427734 C-105.89299774169922,-43.9630012512207 -102.1709976196289,-47.6870002746582 -97.81999969482422,-50.30799865722656 C-89.58200073242188,-55.26599884033203 -79.11299896240234,-56.24100112915039 -69.70800018310547,-51.98400115966797 C-62.34700012207031,-48.6609992980957 -56.724998474121094,-42.67499923706055 -53.87900161743164,-35.130001068115234 C-51.03799819946289,-27.608999252319336 -51.29399871826172,-19.430999755859375 -54.59400177001953,-12.104999542236328 C-54.59400177001953,-12.104999542236328 -70.34200286865234,23.628000259399414 -70.34200286865234,23.628000259399414 C-70.34200286865234,23.628000259399414 -92.06800079345703,14.081999778747559 -92.06800079345703,14.081999778747559 C-92.06800079345703,14.081999778747559 -76.25599670410156,-21.819000244140625 -76.25599670410156,-21.819000244140625 C-75.53700256347656,-23.402000427246094 -75.47799682617188,-25.156999588012695 -76.09100341796875,-26.777000427246094 C-76.7040023803711,-28.395999908447266 -77.91300201416016,-29.68199920654297 -79.49099731445312,-30.399999618530273 C-82.74800109863281,-31.875 -86.61000061035156,-30.42300033569336 -88.0780029296875,-27.172000885009766 C-88.0780029296875,-27.172000885009766 -93.63800048828125,-14.913999557495117 -93.63800048828125,-14.913999557495117 C-93.63800048828125,-14.913999557495117 -93.61399841308594,-14.911999702453613 -93.61399841308594,-14.911999702453613 C-99.12300109863281,-0.1979999989271164 -113.22000122070312,10.017000198364258 -129.33900451660156,10.303000450134277"></path></g><g opacity="1" transform="matrix(1,0,0,1,0,0)"><path fill="rgb(35,31,32)" fill-opacity="1" d=" M-148.88299560546875,5.696000099182129 C-148.91000366210938,5.692999839782715 -148.93800354003906,5.684999942779541 -148.96400451660156,5.671000003814697 C-150.1269989013672,5.0320000648498535 -151.26800537109375,4.324999809265137 -152.3560028076172,3.571000099182129 C-152.44900512695312,3.505000114440918 -152.47300720214844,3.378000020980835 -152.4080047607422,3.2850000858306885 C-152.34300231933594,3.190999984741211 -152.21499633789062,3.1689999103546143 -152.1219940185547,3.2320001125335693 C-151.04600524902344,3.9779999256134033 -149.91600036621094,4.677000045776367 -148.76499938964844,5.309999942779541 C-148.6649932861328,5.364999771118164 -148.6300048828125,5.488999843597412 -148.6840057373047,5.589000225067139 C-148.72500610351562,5.664000034332275 -148.8040008544922,5.703000068664551 -148.88299560546875,5.696000099182129"></path></g><g opacity="1" transform="matrix(1,0,0,1,0,0)"><path fill="rgb(35,31,32)" fill-opacity="1" d=" M-133.6820068359375,10.345999717712402 C-133.79600524902344,10.336000442504883 -133.87899780273438,10.234999656677246 -133.8679962158203,10.121000289916992 C-133.85800170898438,10.008000373840332 -133.7570037841797,9.925000190734863 -133.6439971923828,9.9350004196167 C-132.19900512695312,10.069000244140625 -130.7519989013672,10.12399959564209 -129.34300231933594,10.097000122070312 C-129.23199462890625,10.093000411987305 -129.13499450683594,10.1850004196167 -129.13299560546875,10.298999786376953 C-129.1300048828125,10.413000106811523 -129.2220001220703,10.505999565124512 -129.3350067138672,10.508000373840332 C-130.75900268554688,10.53499984741211 -132.2209930419922,10.480999946594238 -133.6820068359375,10.345999717712402"></path></g><g opacity="1" transform="matrix(1,0,0,1,0,0)"><path fill="rgb(35,31,32)" fill-opacity="1" d=" M-111.67900085449219,-32.430999755859375 C-111.70099639892578,-32.43299865722656 -111.7239990234375,-32.43899917602539 -111.74500274658203,-32.44900131225586 C-111.8479995727539,-32.49599838256836 -111.89399719238281,-32.61800003051758 -111.84700012207031,-32.72100067138672 C-111.84700012207031,-32.72100067138672 -109.89900207519531,-37.03099822998047 -109.89900207519531,-37.03099822998047 C-109.51300048828125,-37.875999450683594 -109.10600280761719,-38.67499923706055 -108.68699645996094,-39.404998779296875 C-106.13600158691406,-43.95000076293945 -102.41400146484375,-47.78200149536133 -97.92500305175781,-50.48400115966797 C-97.8280029296875,-50.54399871826172 -97.7020034790039,-50.512001037597656 -97.64299774169922,-50.41400146484375 C-97.58399963378906,-50.31700134277344 -97.61599731445312,-50.189998626708984 -97.71399688720703,-50.13100051879883 C-102.14099884033203,-47.46500015258789 -105.81199645996094,-43.685001373291016 -108.3290023803711,-39.20100021362305 C-108.74299621582031,-38.47999954223633 -109.14399719238281,-37.69300079345703 -109.52400207519531,-36.861000061035156 C-109.52400207519531,-36.861000061035156 -111.47200012207031,-32.55099868774414 -111.47200012207031,-32.55099868774414 C-111.51000213623047,-32.470001220703125 -111.59400177001953,-32.42300033569336 -111.67900085449219,-32.430999755859375"></path></g></g><g transform="matrix(0.6095125079154968,-0.04260869696736336,0.04260869696736336,0.6095125079154968,302.1796875,288.56451416015625)" opacity="1" style="display: block;"><g opacity="1" transform="matrix(1,0,0,1,0,0)"><path fill="rgb(136,193,248)" fill-opacity="1" d=" M-44.3489990234375,-231.91700744628906 C-44.3489990234375,-186.0749969482422 -81.51100158691406,-148.91299438476562 -127.35299682617188,-148.91299438476562 C-173.19500732421875,-148.91299438476562 -210.35800170898438,-186.0749969482422 -210.35800170898438,-231.91700744628906 C-210.35800170898438,-277.7590026855469 -173.19500732421875,-314.9219970703125 -127.35299682617188,-314.9219970703125 C-81.51100158691406,-314.9219970703125 -44.3489990234375,-277.7590026855469 -44.3489990234375,-231.91700744628906z"></path></g></g><g transform="matrix(0.6095125079154968,-0.04260869696736336,0.04260869696736336,0.6095125079154968,312.64141845703125,293.65185546875)" opacity="1" style="display: block;"><g opacity="1" transform="matrix(1,0,0,1,0,0)"><path fill="rgb(136,193,248)" fill-opacity="1" d=" M-188.14999389648438,-207.63499450683594 C-188.14999389648438,-192.17100524902344 -200.68600463867188,-179.63499450683594 -216.14999389648438,-179.63499450683594 C-231.61399841308594,-179.63499450683594 -244.14999389648438,-192.17100524902344 -244.14999389648438,-207.63499450683594 C-244.14999389648438,-223.0989990234375 -231.61399841308594,-235.63499450683594 -216.14999389648438,-235.63499450683594 C-200.68600463867188,-235.63499450683594 -188.14999389648438,-223.0989990234375 -188.14999389648438,-207.63499450683594z"></path></g><g opacity="1" transform="matrix(1,0,0,1,0,0)"><path fill="rgb(255,255,255)" fill-opacity="1" d=" M-223.1479949951172,-211.78900146484375 C-223.1479949951172,-211.78900146484375 -211.21600341796875,-203.32699584960938 -211.21600341796875,-203.32699584960938"></path><path stroke-linecap="round" stroke-linejoin="round" fill-opacity="0" stroke="rgb(0,0,0)" stroke-opacity="1" stroke-width="2" d=" M-223.1479949951172,-211.78900146484375 C-223.1479949951172,-211.78900146484375 -211.21600341796875,-203.32699584960938 -211.21600341796875,-203.32699584960938"></path></g><g opacity="1" transform="matrix(1,0,0,1,0,0)"><path fill="rgb(255,255,255)" fill-opacity="1" d=" M-212.9510040283203,-213.5240020751953 C-212.9510040283203,-213.5240020751953 -221.41299438476562,-201.5919952392578 -221.41299438476562,-201.5919952392578"></path><path stroke-linecap="round" stroke-linejoin="round" fill-opacity="0" stroke="rgb(0,0,0)" stroke-opacity="1" stroke-width="2" d=" M-212.9510040283203,-213.5240020751953 C-212.9510040283203,-213.5240020751953 -221.41299438476562,-201.5919952392578 -221.41299438476562,-201.5919952392578"></path></g></g><g transform="matrix(0.6095125079154968,-0.04260869696736336,0.04260869696736336,0.6095125079154968,300.23614501953125,287.9500732421875)" opacity="1" style="display: block;"><g opacity="1" transform="matrix(1,0,0,1,0,0)"><path fill="rgb(255,255,255)" fill-opacity="1" d=" M-72.13500213623047,-279.85699462890625 C-72.13500213623047,-271 -79.31500244140625,-263.82000732421875 -88.1719970703125,-263.82000732421875 C-97.02899932861328,-263.82000732421875 -104.20899963378906,-271 -104.20899963378906,-279.85699462890625 C-104.20899963378906,-288.7139892578125 -97.02899932861328,-295.8940124511719 -88.1719970703125,-295.8940124511719 C-79.31500244140625,-295.8940124511719 -72.13500213623047,-288.7139892578125 -72.13500213623047,-279.85699462890625z"></path></g></g><g transform="matrix(0.6095125079154968,-0.04260869696736336,0.04260869696736336,0.6095125079154968,300.23614501953125,287.9500732421875)" opacity="1" style="display: block;"><g opacity="1" transform="matrix(1,0,0,1,0,0)"><path fill="rgb(29,29,27)" fill-opacity="1" d=" M-77.66600036621094,-280.0690002441406 C-77.66600036621094,-274.2669982910156 -82.37000274658203,-269.56298828125 -88.1719970703125,-269.56298828125 C-93.9739990234375,-269.56298828125 -98.6780014038086,-274.2669982910156 -98.6780014038086,-280.0690002441406 C-98.6780014038086,-285.8710021972656 -93.9739990234375,-290.57501220703125 -88.1719970703125,-290.57501220703125 C-82.37000274658203,-290.57501220703125 -77.66600036621094,-285.8710021972656 -77.66600036621094,-280.0690002441406z"></path></g></g><g style="display: none;" transform="matrix(0.6083283424377441,0.05707608163356781,-0.05707608163356781,0.6083283424377441,283.81134033203125,308.1294860839844)" opacity="0.39809599999963696"><g opacity="1" transform="matrix(1,0,0,1,0,0)"><path fill="rgb(136,193,248)" fill-opacity="1" d=" M-72.13500213623047,-279.85699462890625 C-72.13500213623047,-271 -79.31500244140625,-263.82000732421875 -88.1719970703125,-263.82000732421875 C-97.02899932861328,-263.82000732421875 -104.20899963378906,-271 -104.20899963378906,-279.85699462890625 C-104.20899963378906,-288.7139892578125 -97.02899932861328,-295.8940124511719 -88.1719970703125,-295.8940124511719 C-79.31500244140625,-295.8940124511719 -72.13500213623047,-288.7139892578125 -72.13500213623047,-279.85699462890625z"></path><path stroke-linecap="butt" stroke-linejoin="miter" fill-opacity="0" stroke-miterlimit="4" stroke="rgb(0,0,0)" stroke-opacity="1" stroke-width="1" d=" M-72.13500213623047,-279.85699462890625 C-72.13500213623047,-271 -79.31500244140625,-263.82000732421875 -88.1719970703125,-263.82000732421875 C-97.02899932861328,-263.82000732421875 -104.20899963378906,-271 -104.20899963378906,-279.85699462890625 C-104.20899963378906,-288.7139892578125 -97.02899932861328,-295.8940124511719 -88.1719970703125,-295.8940124511719 C-79.31500244140625,-295.8940124511719 -72.13500213623047,-288.7139892578125 -72.13500213623047,-279.85699462890625z"></path></g></g><g transform="matrix(0.6095125079154968,-0.04260869696736336,0.04260869696736336,0.6095125079154968,301.6739501953125,288.9790344238281)" opacity="1" style="display: block;"><g opacity="1" transform="matrix(1,0,0,1,0,0)"><path fill="rgb(255,255,255)" fill-opacity="1" d=" M-135.44400024414062,-269.47601318359375 C-135.44400024414062,-259.2489929199219 -143.73500061035156,-250.95799255371094 -153.96200561523438,-250.95799255371094 C-164.18899536132812,-250.95799255371094 -172.47900390625,-259.2489929199219 -172.47900390625,-269.47601318359375 C-172.47900390625,-279.7030029296875 -164.18899536132812,-287.9939880371094 -153.96200561523438,-287.9939880371094 C-143.73500061035156,-287.9939880371094 -135.44400024414062,-279.7030029296875 -135.44400024414062,-269.47601318359375z"></path></g></g><g transform="matrix(0.6095125079154968,-0.04260869696736336,0.04260869696736336,0.6095125079154968,301.6739501953125,288.9790344238281)" opacity="1" style="display: block;"><g opacity="1" transform="matrix(1,0,0,1,0,0)"><path fill="rgb(29,29,27)" fill-opacity="1" d=" M-141.83099365234375,-269.72100830078125 C-141.83099365234375,-263.02099609375 -147.26199340820312,-257.5899963378906 -153.96200561523438,-257.5899963378906 C-160.66200256347656,-257.5899963378906 -166.09300231933594,-263.02099609375 -166.09300231933594,-269.72100830078125 C-166.09300231933594,-276.4209899902344 -160.66200256347656,-281.85198974609375 -153.96200561523438,-281.85198974609375 C-147.26199340820312,-281.85198974609375 -141.83099365234375,-276.4209899902344 -141.83099365234375,-269.72100830078125z"></path></g></g><g style="display: none;" transform="matrix(0.6083283424377441,0.05707608163356781,-0.05707608163356781,0.6083283424377441,284.5624694824219,309.37884521484375)" opacity="0.39809599999963696"><g opacity="1" transform="matrix(1,0,0,1,0,0)"><path fill="rgb(136,193,248)" fill-opacity="1" d=" M-135.44400024414062,-269.47601318359375 C-135.44400024414062,-259.2489929199219 -143.73500061035156,-250.95799255371094 -153.96200561523438,-250.95799255371094 C-164.18899536132812,-250.95799255371094 -172.47900390625,-259.2489929199219 -172.47900390625,-269.47601318359375 C-172.47900390625,-279.7030029296875 -164.18899536132812,-287.9939880371094 -153.96200561523438,-287.9939880371094 C-143.73500061035156,-287.9939880371094 -135.44400024414062,-279.7030029296875 -135.44400024414062,-269.47601318359375z"></path><path stroke-linecap="butt" stroke-linejoin="miter" fill-opacity="0" stroke-miterlimit="4" stroke="rgb(0,0,0)" stroke-opacity="1" stroke-width="1" d=" M-135.44400024414062,-269.47601318359375 C-135.44400024414062,-259.2489929199219 -143.73500061035156,-250.95799255371094 -153.96200561523438,-250.95799255371094 C-164.18899536132812,-250.95799255371094 -172.47900390625,-259.2489929199219 -172.47900390625,-269.47601318359375 C-172.47900390625,-279.7030029296875 -164.18899536132812,-287.9939880371094 -153.96200561523438,-287.9939880371094 C-143.73500061035156,-287.9939880371094 -135.44400024414062,-279.7030029296875 -135.44400024414062,-269.47601318359375z"></path></g></g><g transform="matrix(0.5999791026115417,-0.11552499979734421,0.11552499979734421,0.5999791026115417,318.7239685058594,277.0307922363281)" opacity="1" style="display: block;"><g opacity="1" transform="matrix(1,0,0,1,0,0)"><path fill="rgb(136,193,248)" fill-opacity="1" d=" M-113.28600311279297,-257.5899963378906 C-113.28600311279297,-257.5899963378906 -109.78500366210938,-273.69500732421875 -110.69100189208984,-294.1730041503906 C-111.1510009765625,-304.5559997558594 -112.74299621582031,-316.0639953613281 -116.5,-327.1669921875"></path><path stroke-linecap="round" stroke-linejoin="round" fill-opacity="0" stroke="rgb(0,0,0)" stroke-opacity="1" stroke-width="23" d=" M-113.28600311279297,-257.5899963378906 C-113.28600311279297,-257.5899963378906 -109.78500366210938,-273.69500732421875 -110.69100189208984,-294.1730041503906 C-111.1510009765625,-304.5559997558594 -112.74299621582031,-316.0639953613281 -116.5,-327.1669921875"></path></g></g><g transform="matrix(0.5999791026115417,-0.11552499979734421,0.11552499979734421,0.5999791026115417,318.7239685058594,277.0307922363281)" opacity="1" style="display: block;"><g opacity="1" transform="matrix(1,0,0,1,0,0)"><path fill="rgb(136,193,248)" fill-opacity="1" d=" M-113.28600311279297,-257.5899963378906 C-113.28600311279297,-257.5899963378906 -109.78500366210938,-273.69500732421875 -110.69100189208984,-294.1730041503906 C-111.1510009765625,-304.5559997558594 -112.74299621582031,-316.0639953613281 -116.5,-327.1669921875"></path><path stroke-linecap="round" stroke-linejoin="round" fill-opacity="0" stroke="rgb(136,193,248)" stroke-opacity="1" stroke-width="19" d=" M-113.28600311279297,-257.5899963378906 C-113.28600311279297,-257.5899963378906 -109.78500366210938,-273.69500732421875 -110.69100189208984,-294.1730041503906 C-111.1510009765625,-304.5559997558594 -112.74299621582031,-316.0639953613281 -116.5,-327.1669921875"></path></g></g><g transform="matrix(0.610627293586731,0.02133612334728241,-0.02133612334728241,0.610627293586731,239.71771240234375,340.86260986328125)" opacity="1" style="display: block;"><g opacity="1" transform="matrix(1,0,0,1,0,0)"><path fill="rgb(136,193,248)" fill-opacity="1" d=" M-25.5,-336 C-25.5,-336 -56.25,-333.25 -56.25,-333.25 C-56.25,-333.25 -57,-319.5 -57,-319.5 C-57,-319.5 -24,-321.5 -24,-321.5 C-24,-321.5 -25.5,-336 -25.5,-336z"></path></g></g><g transform="matrix(0.5741564631462097,-0.20896251499652863,0.20896251499652863,0.5741564631462097,338.5840148925781,253.4068603515625)" opacity="1" style="display: block;"><g opacity="1" transform="matrix(1,0,0,1,0,0)"><path stroke-linecap="round" stroke-linejoin="round" fill-opacity="0" stroke="rgb(0,0,0)" stroke-opacity="1" stroke-width="3" d=" M-185.54200744628906,-247.16600036621094 C-185.54200744628906,-247.16700744628906 -185.54200744628906,-247.16700744628906 -185.54200744628906,-247.16700744628906 C-185.54200744628906,-258.1210021972656 -176.66200256347656,-267 -165.70799255371094,-267 C-154.75399780273438,-267 -145.875,-258.1210021972656 -145.875,-247.16700744628906"></path><path fill="rgb(136,193,248)" fill-opacity="1" d=" M-185.54200744628906,-247.16600036621094 C-185.54200744628906,-247.16700744628906 -185.54200744628906,-247.16700744628906 -185.54200744628906,-247.16700744628906 C-185.54200744628906,-258.1210021972656 -176.66200256347656,-267 -165.70799255371094,-267 C-154.75399780273438,-267 -145.875,-258.1210021972656 -145.875,-247.16700744628906"></path></g></g><g transform="matrix(0.6095125079154968,-0.04260869696736336,0.04260869696736336,0.6095125079154968,361.05322265625,276.48651123046875)" opacity="1" style="display: block;"><g opacity="1" transform="matrix(1,0,0,1,0,0)"><path stroke-linecap="round" stroke-linejoin="round" fill-opacity="0" stroke="rgb(0,0,0)" stroke-opacity="1" stroke-width="3" d=" M-185.54200744628906,-247.16600036621094 C-185.54200744628906,-247.16700744628906 -185.54200744628906,-247.16700744628906 -185.54200744628906,-247.16700744628906 C-185.54200744628906,-258.1210021972656 -176.66200256347656,-267 -165.70799255371094,-267 C-154.75399780273438,-267 -145.875,-258.1210021972656 -145.875,-247.16700744628906"></path><path fill="rgb(136,193,248)" fill-opacity="1" d=" M-185.54200744628906,-247.16600036621094 C-185.54200744628906,-247.16700744628906 -185.54200744628906,-247.16700744628906 -185.54200744628906,-247.16700744628906 C-185.54200744628906,-258.1210021972656 -176.66200256347656,-267 -165.70799255371094,-267 C-154.75399780273438,-267 -145.875,-258.1210021972656 -145.875,-247.16700744628906"></path></g></g><g transform="matrix(0.6095125079154968,-0.04260869696736336,0.04260869696736336,0.6095125079154968,303.8377685546875,285.9986572265625)" opacity="1" style="display: block;"><g opacity="1" transform="matrix(1,0,0,1,0,0)"><path stroke-linecap="round" stroke-linejoin="round" fill-opacity="0" stroke="rgb(246,177,207)" stroke-opacity="1" stroke-width="23" d=" M-158.08299255371094,-228.25 C-158.08299255371094,-228.25 -138.73431396484375,-207.9744110107422 -110.83432006835938,-212.98541259765625 C-79.7513198852539,-218.5684051513672 -69.5,-243.5 -69.5,-243.5"></path><path stroke-linecap="round" stroke-linejoin="round" fill-opacity="0" stroke="rgb(0,0,0)" stroke-opacity="1" stroke-width="1" d=" M-158.08299255371094,-228.25 C-158.08299255371094,-228.25 -138.73431396484375,-207.9744110107422 -110.83432006835938,-212.98541259765625 C-79.7513198852539,-218.5684051513672 -69.5,-243.5 -69.5,-243.5"></path></g></g></g></svg>