
  
  <svg xmlns="http://www.w3.org/2000/svg" xmlns:xlink="http://www.w3.org/1999/xlink" viewBox="0 0 464 488" width="464" height="488" preserveAspectRatio="xMidYMid meet" style="width: 100%; height: 100%; transform: translate3d(0px, 0px, 0px); content-visibility: visible;"><defs><clipPath id="__lottie_element_329"><rect width="464" height="488" x="0" y="0"></rect></clipPath><clipPath id="__lottie_element_334"><path d="M0,0 L1512,0 L1512,1284 L0,1284z"></path></clipPath><clipPath id="__lottie_element_371"><path d="M0,0 L176,0 L176,186 L0,186z"></path></clipPath></defs><g clip-path="url(#__lottie_element_329)"><g clip-path="url(#__lottie_element_371)" transform="matrix(2.7699999809265137,0,0,2.7699999809265137,-6.7599945068359375,-23.6099853515625)" opacity="1" style="display: block;"><g transform="matrix(1,0,0,1,43.334999084472656,80.87300109863281)" opacity="1" style="display: block;"><g opacity="1" transform="matrix(1,0,0,1,0,0)"><path fill="rgb(240,78,55)" fill-opacity="1" d=" M20.615999221801758,32.18899917602539 C22.893999099731445,10.942999839782715 -0.3409999907016754,-25.334999084472656 -20.615999221801758,-32.18899917602539 C-22.893999099731445,-10.942000389099121 0.3409999907016754,25.334999084472656 20.615999221801758,32.18899917602539"></path></g></g><g transform="matrix(1,0,0,1,45.96699905395508,84.98200225830078)" opacity="1" style="display: block;"><g opacity="1" transform="matrix(1,0,0,1,0,0)"><path fill="rgb(35,31,32)" fill-opacity="1" d=" M27.16200065612793,42.39899826049805 C27.09600067138672,42.39899826049805 27.0310001373291,42.36800003051758 26.993000030517578,42.30799865722656 C26.993000030517578,42.30799865722656 -27.33099937438965,-42.09000015258789 -27.33099937438965,-42.09000015258789 C-27.392000198364258,-42.18299865722656 -27.36400032043457,-42.30699920654297 -27.270999908447266,-42.36800003051758 C-27.177000045776367,-42.428001403808594 -27.05299949645996,-42.4010009765625 -26.992000579833984,-42.30699920654297 C-26.992000579833984,-42.30699920654297 27.33099937438965,42.0890007019043 27.33099937438965,42.0890007019043 C27.392000198364258,42.18299865722656 27.364999771118164,42.30799865722656 27.270999908447266,42.36800003051758 C27.23699951171875,42.388999938964844 27.200000762939453,42.39899826049805 27.16200065612793,42.39899826049805"></path></g></g><g transform="matrix(1,0,0,1,-46,16)" opacity="1" style="display: block;"><g opacity="1" transform="matrix(1,0,0,1,0,0)"><path fill="rgb(35,31,32)" fill-opacity="1" d=" M115.08799743652344,105.28500366210938 C99.7760009765625,105.28500366210938 79.03099822998047,96.52100372314453 72.30999755859375,85.79000091552734 C72.27200317382812,85.72799682617188 72.26300048828125,85.6520004272461 72.28800201416016,85.58399963378906 C72.31099700927734,85.51599884033203 72.36399841308594,85.46199798583984 72.43199920654297,85.43900299072266 C87.03399658203125,80.3010025024414 116.14900207519531,90.4739990234375 124.3550033569336,103.5770034790039 C124.39399719238281,103.63899993896484 124.4020004272461,103.71399688720703 124.37799835205078,103.78199768066406 C124.35399627685547,103.8499984741211 124.3010025024414,103.90399932861328 124.23300170898438,103.927001953125 C121.59100341796875,104.85700225830078 118.47100067138672,105.28500366210938 115.08799743652344,105.28500366210938 M72.875,85.79100036621094 C81.1510009765625,98.54399871826172 109.35099792480469,108.39700317382812 123.79100036621094,103.57599639892578 C115.51300048828125,90.8219985961914 87.31300354003906,80.96900177001953 72.875,85.79100036621094"></path></g></g><g transform="matrix(1,0,0,1,51.319000244140625,110.34100341796875)" opacity="1" style="display: block;"><g opacity="1" transform="matrix(1,0,0,1,0,0)"><path fill="rgb(35,31,32)" fill-opacity="1" d=" M29.615999221801758,10.508000373840332 C29.59000015258789,10.508000373840332 29.56399917602539,10.503000259399414 29.538000106811523,10.494999885559082 C29.538000106811523,10.494999885559082 -29.69499969482422,-10.045999526977539 -29.69499969482422,-10.045999526977539 C-29.81800079345703,-10.088000297546387 -29.882999420166016,-10.225000381469727 -29.840999603271484,-10.348999977111816 C-29.79800033569336,-10.472999572753906 -29.66200065612793,-10.536999702453613 -29.538000106811523,-10.496000289916992 C-29.538000106811523,-10.496000289916992 29.694000244140625,10.045000076293945 29.694000244140625,10.045000076293945 C29.81800079345703,10.086999893188477 29.884000778198242,10.223999977111816 29.840999603271484,10.347999572753906 C29.80699920654297,10.446000099182129 29.714000701904297,10.508000373840332 29.615999221801758,10.508000373840332"></path></g></g><g transform="matrix(1,0,0,1,94.81099700927734,89.31999969482422)" opacity="1" style="display: block;"><g opacity="1" transform="matrix(1,0,0,1,0,0)"><path fill="rgb(255,255,255)" fill-opacity="1" d=" M39.45199966430664,13.564000129699707 C46.06800079345703,-4.874000072479248 37.84600067138672,-26.388999938964844 21.19499969482422,-35.95600128173828 C21.19499969482422,-35.95600128173828 21.115999221801758,-35.96200180053711 21.115999221801758,-35.96200180053711 C10.694999694824219,-42.361000061035156 -4.09499979019165,-43.553001403808594 -15.541000366210938,-38.75299835205078 C-15.541000366210938,-38.75299835205078 -15.60099983215332,-38.75699996948242 -15.60099983215332,-38.75699996948242 C-22.332000732421875,-36 -28.365999221801758,-31.57200050354004 -32.86600112915039,-25.871000289916992 C-32.86600112915039,-25.871000289916992 -32.90599822998047,-25.68600082397461 -32.90599822998047,-25.68600082397461 C-40.659000396728516,-15.79699993133545 -43.63100051879883,-2.5829999446868896 -40.534000396728516,9.932000160217285 C-40.534000396728516,9.932000160217285 -40.59400177001953,10.21399974822998 -40.59400177001953,10.21399974822998 C-29.773000717163086,50.46699905395508 25.649999618530273,52.680999755859375 39.45199966430664,13.564000129699707z"></path></g></g><g transform="matrix(1,0,0,1,105.05799865722656,131.22300720214844)" opacity="1" style="display: block;"><g opacity="1" transform="matrix(1,0,0,1,0,0)"><path fill="rgb(114,160,213)" fill-opacity="1" d=" M-45.42900085449219,34.13999938964844 C-45.46200180053711,34.09700012207031 -45.49399948120117,34.04199981689453 -45.527000427246094,33.999000549316406 C-45.926998138427734,33.38399887084961 -46.305999755859375,32.75699996948242 -46.641998291015625,32.119998931884766 C-51.13399887084961,23.628000259399414 -49.801998138427734,12.868000030517578 -42.64799880981445,5.72599983215332 C-42.64799880981445,5.72599983215332 -31.15399932861328,-5.748000144958496 -31.15399932861328,-5.748000144958496 C-25.027999877929688,-2.2149999141693115 -17.9060001373291,-0.1940000057220459 -10.319000244140625,-0.1940000057220459 C-3.8570001125335693,-0.1940000057220459 2.246999979019165,-1.652999997138977 7.711999893188477,-4.26800012588501 C21.26300048828125,-10.73900032043457 30.775999069213867,-24.28700065612793 31.437000274658203,-40.1150016784668 C31.437000274658203,-40.1150016784668 49.2400016784668,-22.12700080871582 49.2400016784668,-22.12700080871582 C49.2400016784668,-22.12700080871582 -10.795999526977539,37.520999908447266 -10.795999526977539,37.520999908447266 C-11.196000099182129,37.92100143432617 -11.595999717712402,38.29999923706055 -12.017999649047852,38.64500045776367 C-22.062000274658203,40.79499816894531 -32.09600067138672,40.59000015258789 -42.138999938964844,38.007999420166016 C-42.3129997253418,37.858001708984375 -42.48500061035156,37.68299865722656 -42.64799880981445,37.520999908447266 C-43.698001861572266,36.4630012512207 -44.62799835205078,35.32899856567383 -45.42900085449219,34.13999938964844"></path></g></g><g transform="matrix(1,0,0,1,77.97899627685547,172.2830047607422)" opacity="1" style="display: block;"><g opacity="1" transform="matrix(1,0,0,1,0,0)"><path fill="rgb(33,52,104)" fill-opacity="1" d=" M-15.0600004196167,-3.052000045776367 C-5.017000198364258,-0.4699999988079071 5.017000198364258,-0.26600000262260437 15.0600004196167,-2.4149999618530273 C10.850000381469727,1.2259999513626099 5.599999904632568,3.052000045776367 0.3619999885559082,3.052000045776367 C-5.190000057220459,3.052000045776367 -10.729999542236328,1.0099999904632568 -15.0600004196167,-3.052000045776367"></path></g></g><g transform="matrix(1,0,0,1,49.2400016784668,135.4550018310547)" opacity="1" style="display: block;"><g opacity="1" transform="matrix(1,0,0,1,0,0)"><path fill="rgb(114,160,213)" fill-opacity="1" d=" M24.665000915527344,-9.979999542236328 C24.665000915527344,-9.979999542236328 13.170000076293945,1.49399995803833 13.170000076293945,1.49399995803833 C6.015999794006348,8.635000228881836 4.684000015258789,19.395999908447266 9.175999641418457,27.88800048828125 C0.8209999799728394,29.908000946044922 -7.5229997634887695,30.297000885009766 -15.868000030517578,29.04400062561035 C-16.63599967956543,28.459999084472656 -17.36199951171875,27.82200050354004 -18.065000534057617,27.1200008392334 C-26.864999771118164,18.336000442504883 -26.864999771118164,4.0980000495910645 -18.065000534057617,-4.675000190734863 C-18.065000534057617,-4.675000190734863 7.066999912261963,-29.761999130249023 7.066999912261963,-29.761999130249023 C10.637999534606934,-21.42099952697754 16.85099983215332,-14.475000381469727 24.665000915527344,-9.979999542236328"></path></g></g><g transform="matrix(1,0,0,1,46.5,166.24899291992188)" opacity="1" style="display: block;"><g opacity="1" transform="matrix(1,0,0,1,0,0)"><path fill="rgb(33,52,104)" fill-opacity="1" d=" M13.031000137329102,-1.0260000228881836 C13.064000129699707,-0.9829999804496765 13.095999717712402,-0.9290000200271606 13.128999710083008,-0.8859999775886536 C9.35099983215332,1.6419999599456787 4.979000091552734,2.9070000648498535 0.6060000061988831,2.9070000648498535 C-4.243000030517578,2.9070000648498535 -9.10200023651123,1.3509999513626099 -13.128999710083008,-1.75 C-4.783999919891357,-0.4970000088214874 3.561000108718872,-0.8859999775886536 11.916000366210938,-2.9070000648498535 C12.251999855041504,-2.2690000534057617 12.630999565124512,-1.6410000324249268 13.031000137329102,-1.0260000228881836"></path></g></g><g transform="matrix(1,0,0,1,55.39699935913086,146.83900451660156)" opacity="1" style="display: block;"><g opacity="1" transform="matrix(1,0,0,1,0,0)"><path fill="rgb(35,31,32)" fill-opacity="1" d=" M-1.7100000381469727,1.972000002861023 C-1.7710000276565552,1.972000002861023 -1.8320000171661377,1.9490000009536743 -1.878000020980835,1.902999997138977 C-1.972000002861023,1.809000015258789 -1.972000002861023,1.659000039100647 -1.878000020980835,1.565999984741211 C-1.878000020980835,1.565999984741211 1.593000054359436,-1.9240000247955322 1.593000054359436,-1.9240000247955322 C1.687000036239624,-2.0179998874664307 1.784999966621399,-1.9630000591278076 1.878000020980835,-1.8700000047683716 C1.972000002861023,-1.7769999504089355 1.972000002861023,-1.6269999742507935 1.878000020980835,-1.5329999923706055 C1.878000020980835,-1.5329999923706055 -1.5429999828338623,1.902999997138977 -1.5429999828338623,1.902999997138977 C-1.5889999866485596,1.9490000009536743 -1.6490000486373901,1.972000002861023 -1.7100000381469727,1.972000002861023"></path></g></g><g transform="matrix(1,0,0,1,64.84600067138672,145.3489990234375)" opacity="1" style="display: block;"><g opacity="1" transform="matrix(1,0,0,1,0,0)"><path fill="rgb(35,31,32)" fill-opacity="1" d=" M-5.315000057220459,20.11199951171875 C-5.392000198364258,20.11199951171875 -5.4679999351501465,20.07200050354004 -5.513999938964844,20.003000259399414 C-5.960999965667725,19.31599998474121 -6.328000068664551,18.69499969482422 -6.639999866485596,18.104999542236328 C-11.32699966430664,9.241000175476074 -9.706000328063965,-1.4780000448226929 -2.6040000915527344,-8.569000244140625 C-2.6040000915527344,-8.569000244140625 8.890000343322754,-20.04199981689453 8.890000343322754,-20.04199981689453 C8.982999801635742,-20.135000228881836 9.133000373840332,-20.135000228881836 9.22599983215332,-20.04199981689453 C9.319999694824219,-19.947999954223633 9.319999694824219,-19.79800033569336 9.22599983215332,-19.704999923706055 C9.22599983215332,-19.704999923706055 -2.2669999599456787,-8.232000350952148 -2.2669999599456787,-8.232000350952148 C-9.220999717712402,-1.2899999618530273 -10.809000015258789,9.204999923706055 -6.218999862670898,17.881999969482422 C-5.914999961853027,18.461000442504883 -5.553999900817871,19.06999969482422 -5.114999771118164,19.743000030517578 C-5.044000148773193,19.854000091552734 -5.073999881744385,20.00200080871582 -5.184999942779541,20.072999954223633 C-5.224999904632568,20.099000930786133 -5.270999908447266,20.11199951171875 -5.315000057220459,20.11199951171875"></path></g></g><g transform="matrix(1,0,0,1,98.84600067138672,140.85400390625)" opacity="1" style="display: block;"><g opacity="1" transform="matrix(1,0,0,1,0,0)"><path fill="rgb(35,31,32)" fill-opacity="1" d=" M-13.923999786376953,14.13700008392334 C-13.984999656677246,14.13700008392334 -14.045999526977539,14.11400032043457 -14.092000007629395,14.067999839782715 C-14.185999870300293,13.973999977111816 -14.185999870300293,13.824000358581543 -14.092000007629395,13.730999946594238 C-14.092000007629395,13.730999946594238 13.755000114440918,-14.067000389099121 13.755000114440918,-14.067000389099121 C13.848999977111816,-14.16100025177002 13.99899959564209,-14.16100025177002 14.092000007629395,-14.067000389099121 C14.185999870300293,-13.973999977111816 14.185999870300293,-13.824999809265137 14.092000007629395,-13.730999946594238 C14.092000007629395,-13.730999946594238 -13.755999565124512,14.067999839782715 -13.755999565124512,14.067999839782715 C-13.802000045776367,14.11400032043457 -13.86299991607666,14.13700008392334 -13.923999786376953,14.13700008392334"></path></g></g><g transform="matrix(0.9929308295249939,-0.1186942607164383,0.1186942607164383,0.9929308295249939,-876.572509765625,-513.7279663085938)" opacity="1" style="display: block;"><g opacity="1" transform="matrix(1,0,0,1,0,0)"><g opacity="1" transform="matrix(1,0,0,1,909.8880004882812,673.5460205078125)"><path fill="rgb(245,158,196)" fill-opacity="1" d=" M17.652000427246094,2.75600004196167 C17.652000427246094,2.75600004196167 17.652000427246094,2.74399995803833 17.652000427246094,2.74399995803833 C17.665000915527344,2.63700008392334 17.672000885009766,2.5269999504089355 17.68400001525879,2.4200000762939453 C17.711000442504883,2.187000036239624 17.73200035095215,1.9529999494552612 17.750999450683594,1.718000054359436 C17.7810001373291,1.3389999866485596 17.79800033569336,0.9589999914169312 17.808000564575195,0.574999988079071 C17.812999725341797,0.38199999928474426 17.83799934387207,0.1940000057220459 17.83799934387207,-0.0010000000474974513 C17.83799934387207,-11.397000312805176 8.598999977111816,-20.63599967956543 -2.796999931335449,-20.63599967956543 C-7.9629998207092285,-20.63599967956543 -12.67300033569336,-18.725000381469727 -16.292999267578125,-15.588000297546387 C-16.92799949645996,-15.88599967956543 -17.604000091552734,-16.033000946044922 -18.291000366210938,-16.033000946044922 C-19.503000259399414,-16.033000946044922 -20.70400047302246,-15.567000389099121 -21.624000549316406,-14.64900016784668 C-23.41200065612793,-12.86400032043457 -23.459999084472656,-9.989999771118164 -21.753000259399414,-8.152000427246094 C-21.888999938964844,-7.836999893188477 -22,-7.511000156402588 -22.1200008392334,-7.188000202178955 C-22.125,-7.173999786376953 -22.131000518798828,-7.158999919891357 -22.13599967956543,-7.144999980926514 C-22.343000411987305,-6.585999965667725 -22.527000427246094,-6.017000198364258 -22.684999465942383,-5.435999870300293 C-22.740999221801758,-5.23199987411499 -22.792999267578125,-5.026000022888184 -22.843000411987305,-4.818999767303467 C-22.93400001525879,-4.440000057220459 -23.017000198364258,-4.059000015258789 -23.086999893188477,-3.671999931335449 C-23.16200065612793,-3.26200008392334 -23.22599983215332,-2.8489999771118164 -23.277000427246094,-2.430999994277954 C-23.29800033569336,-2.247999906539917 -23.31999969482422,-2.065999984741211 -23.336999893188477,-1.8819999694824219 C-23.39299964904785,-1.281999945640564 -23.426000595092773,-0.675000011920929 -23.429000854492188,-0.061000000685453415 C-23.429000854492188,-0.04100000113248825 -23.43199920654297,-0.020999999716877937 -23.43199920654297,-0.0010000000474974513 C-23.43199920654297,0.004999999888241291 -23.430999755859375,0.012000000104308128 -23.430999755859375,0.017999999225139618 C-23.430999755859375,0.029999999329447746 -23.43199920654297,0.0430000014603138 -23.43199920654297,0.054999999701976776 C-23.43199920654297,11.420999526977539 -14.187999725341797,20.63599967956543 -2.802999973297119,20.63599967956543 C-2.121000051498413,20.63599967956543 -1.4500000476837158,20.59600067138672 -0.7850000262260437,20.531999588012695 C-0.7350000143051147,20.527000427246094 -0.6850000023841858,20.52400016784668 -0.6349999904632568,20.518999099731445 C0.003000000026077032,20.45199966430664 0.6320000290870667,20.354000091552734 1.2519999742507935,20.231000900268555 C1.3229999542236328,20.216999053955078 1.3940000534057617,20.202999114990234 1.4639999866485596,20.187999725341797 C2.0829999446868896,20.058000564575195 2.691999912261963,19.902000427246094 3.2890000343322754,19.718000411987305 C3.3329999446868896,19.704999923706055 3.375,19.690000534057617 3.4189999103546143,19.676000595092773 C4.677000045776367,19.27899932861328 5.883999824523926,18.767000198364258 7.025000095367432,18.14900016784668 C7.0320000648498535,18.145000457763672 7.038000106811523,18.14299964904785 7.045000076293945,18.138999938964844 C7.609000205993652,17.832000732421875 8.156000137329102,17.49799919128418 8.687000274658203,17.142000198364258 C8.720000267028809,17.1200008392334 8.751999855041504,17.097999572753906 8.784000396728516,17.076000213623047 C9.307000160217285,16.72100067138672 9.812000274658203,16.343000411987305 10.298999786376953,15.942999839782715 C10.322999954223633,15.92300033569336 10.347000122070312,15.902999877929688 10.371000289916992,15.883000373840332 C11.343999862670898,15.074999809265137 12.241000175476074,14.178999900817871 13.050000190734863,13.206999778747559 C13.086000442504883,13.163999557495117 13.123000144958496,13.123000144958496 13.157999992370605,13.079999923706055 C13.187000274658203,13.043999671936035 13.218999862670898,13.01200008392334 13.248000144958496,12.97599983215332 C14.329999923706055,14.045999526977539 15.812999725341797,14.694000244140625 17.44700050354004,14.694000244140625 C20.74799919128418,14.694000244140625 23.43199920654297,12.024999618530273 23.43199920654297,8.718999862670898 C23.43199920654297,5.48799991607666 20.856000900268555,2.864000082015991 17.652000427246094,2.75600004196167z"></path></g><g opacity="1" transform="matrix(1,0,0,1,928.0230102539062,682.2689819335938)"><path fill="rgb(35,31,32)" fill-opacity="1" d=" M1.3769999742507935,-0.8769999742507935 C1.319000005722046,-0.8560000061988831 -0.05999999865889549,-0.39899998903274536 -1.284000039100647,-1.6169999837875366 C-1.284999966621399,-1.6180000305175781 -1.2860000133514404,-1.6200000047683716 -1.2869999408721924,-1.621000051498413 C-1.3229999542236328,-1.656000018119812 -1.36899995803833,-1.6660000085830688 -1.4149999618530273,-1.6740000247955322 C-1.437999963760376,-1.6779999732971191 -1.4550000429153442,-1.6829999685287476 -1.4780000448226929,-1.680999994277954 C-1.5299999713897705,-1.6759999990463257 -1.5829999446868896,-1.6610000133514404 -1.6230000257492065,-1.621000051498413 C-1.7170000076293945,-1.5269999504089355 -1.7170000076293945,-1.3769999742507935 -1.6230000257492065,-1.284000039100647 C-0.39899998903274536,-0.06199999898672104 -0.8489999771118164,1.3079999685287476 -0.8690000176429749,1.3650000095367432 C-0.9110000133514404,1.4889999628067017 -0.8450000286102295,1.625 -0.7210000157356262,1.6679999828338623 C-0.6949999928474426,1.6770000457763672 -0.6690000295639038,1.680999994277954 -0.6430000066757202,1.680999994277954 C-0.5450000166893005,1.680999994277954 -0.453000009059906,1.61899995803833 -0.4189999997615814,1.5219999551773071 C-0.4009999930858612,1.4700000286102295 -0.0860000029206276,0.5270000100135803 -0.5509999990463257,-0.5519999861717224 C-0.10599999874830246,-0.3619999885559082 0.3179999887943268,-0.3009999990463257 0.6650000214576721,-0.3009999990463257 C1.1619999408721924,-0.3009999990463257 1.503999948501587,-0.4169999957084656 1.534999966621399,-0.42899999022483826 C1.6579999923706055,-0.47200000286102295 1.7230000495910645,-0.6079999804496765 1.6799999475479126,-0.7310000061988831 C1.6369999647140503,-0.8550000190734863 1.4989999532699585,-0.9169999957084656 1.3769999742507935,-0.8769999742507935z"></path></g></g><g opacity="1" transform="matrix(1,0,0,1,913.9450073242188,661.1740112304688)"><path fill="rgb(33,52,104)" fill-opacity="1" d=" M13.342000007629395,8.25 C13.342000007629395,8.25 -13.342000007629395,-7.224999904632568 -13.342000007629395,-7.224999904632568 C-12.454000473022461,-7.50600004196167 -4.056000232696533,-10.427000045776367 4.4670000076293945,-4.927000045776367 C11.765999794006348,-0.21699999272823334 13.12600040435791,7.158999919891357 13.342000007629395,8.25z"></path></g><g opacity="1" transform="matrix(1,0,0,1,897.3989868164062,661.5479736328125)"><path fill="rgb(35,31,32)" fill-opacity="1" d=" M3.755000114440918,3.809000015258789 C3.694000005722046,3.809000015258789 3.634000062942505,3.7850000858306885 3.5880000591278076,3.739000082015991 C3.5880000591278076,3.739000082015991 -2.6459999084472656,-2.4839999675750732 -2.6459999084472656,-2.4839999675750732 C-2.99399995803833,-2.8410000801086426 -3.4019999504089355,-3.132999897003174 -3.859999895095825,-3.3570001125335693 C-3.9779999256134033,-3.4140000343322754 -4.0269999504089355,-3.555999994277954 -3.9700000286102295,-3.6740000247955322 C-3.9119999408721924,-3.7939999103546143 -3.7669999599456787,-3.8420000076293945 -3.6510000228881836,-3.7839999198913574 C-3.1440000534057617,-3.5369999408721924 -2.693000078201294,-3.2130000591278076 -2.308000087738037,-2.819000005722046 C-2.308000087738037,-2.819000005722046 3.9230000972747803,3.4030001163482666 3.9230000972747803,3.4030001163482666 C4.017000198364258,3.496000051498413 4.017000198364258,3.6449999809265137 3.9230000972747803,3.739000082015991 C3.877000093460083,3.7850000858306885 3.815999984741211,3.809000015258789 3.755000114440918,3.809000015258789"></path></g><g opacity="1" transform="matrix(1,0,0,1,891.3809814453125,668.6519775390625)"><path fill="rgb(35,31,32)" fill-opacity="1" d=" M3.117000102996826,3.3489999771118164 C3.055999994277954,3.3489999771118164 2.994999885559082,3.3259999752044678 2.9489998817443848,3.2799999713897705 C2.9489998817443848,3.2799999713897705 -3.2860000133514404,-2.943000078201294 -3.2860000133514404,-2.943000078201294 C-3.378999948501587,-3.0360000133514404 -3.378999948501587,-3.186000108718872 -3.2860000133514404,-3.2799999713897705 C-3.193000078201294,-3.372999906539917 -3.0420000553131104,-3.372999906539917 -2.9489998817443848,-3.2799999713897705 C-2.9489998817443848,-3.2799999713897705 3.2850000858306885,2.943000078201294 3.2850000858306885,2.943000078201294 C3.378999948501587,3.0360000133514404 3.378999948501587,3.186000108718872 3.2850000858306885,3.2799999713897705 C3.239000082015991,3.3259999752044678 3.177999973297119,3.3489999771118164 3.117000102996826,3.3489999771118164"></path></g><g opacity="1" transform="matrix(1,0,0,1,906.426025390625,679.7219848632812)"><g opacity="1" transform="matrix(1,0,0,1,0,0)"><path stroke-linecap="round" stroke-linejoin="round" fill-opacity="0" stroke="rgb(240,78,55)" stroke-opacity="1" stroke-width="6.5" d=" M9.12399959564209,-3.4860000610351562 C7.718999862670898,-0.5910000205039978 5.251999855041504,1.6180000305175781 2.2699999809265137,2.688999891281128 C1.3600000143051147,3.0190000534057617 0.4180000126361847,3.23799991607666 -0.5360000133514404,3.3450000286102295 C-3.5139999389648438,3.809000015258789 -6.5879998207092285,3.124000072479248 -9.12399959564209,1.3980000019073486"></path></g></g><g opacity="1" transform="matrix(1,0,0,1,906.426025390625,679.7219848632812)"><g opacity="1" transform="matrix(1,0,0,1,0,0)"><path stroke-linecap="round" stroke-linejoin="round" fill-opacity="0" stroke="rgb(35,31,32)" stroke-opacity="1" stroke-width="1" d=" M9.12399959564209,-3.4860000610351562 C7.718999862670898,-0.5910000205039978 5.251999855041504,1.6180000305175781 2.2699999809265137,2.688999891281128 C1.3600000143051147,3.0190000534057617 0.4180000126361847,3.23799991607666 -0.5360000133514404,3.3450000286102295 C-3.5139999389648438,3.809000015258789 -6.5879998207092285,3.124000072479248 -9.12399959564209,1.3980000019073486"></path></g></g><g opacity="1" transform="matrix(1,0,0,1,912.1939697265625,667.125)"><path fill="rgb(35,31,32)" fill-opacity="1" d=" M0,2.0490000247955322 C-2.200000047683716,2.0490000247955322 -4.566999912261963,0.8410000205039978 -4.566999912261963,-1.8109999895095825 C-4.566999912261963,-1.9420000314712524 -4.460999965667725,-2.0490000247955322 -4.329999923706055,-2.0490000247955322 C-4.197999954223633,-2.0490000247955322 -4.0920000076293945,-1.9420000314712524 -4.0920000076293945,-1.8109999895095825 C-4.0920000076293945,0.5139999985694885 -1.9700000286102295,1.5729999542236328 0,1.5729999542236328 C1.9709999561309814,1.5729999542236328 4.091000080108643,0.5139999985694885 4.091000080108643,-1.8109999895095825 C4.091000080108643,-1.9420000314712524 4.197999954223633,-2.0490000247955322 4.328999996185303,-2.0490000247955322 C4.460000038146973,-2.0490000247955322 4.566999912261963,-1.9420000314712524 4.566999912261963,-1.8109999895095825 C4.566999912261963,0.8410000205039978 2.200000047683716,2.0490000247955322 0,2.0490000247955322"></path></g><g opacity="1" transform="matrix(1,0,0,1,0,0)"><g opacity="1" transform="matrix(1,0,0,1,916.5250244140625,654.655029296875)"><path fill="rgb(255,255,255)" fill-opacity="1" d=" M-7.9019999504089355,1.75600004196167 C-7.9019999504089355,1.75600004196167 -4.882999897003174,3.5160000324249268 -4.882999897003174,3.5160000324249268 M-11.284000396728516,-0.21899999678134918 C-11.284000396728516,-0.21899999678134918 -4.881999969482422,3.5169999599456787 -4.881999969482422,3.5169999599456787 C-4.881999969482422,3.5169999599456787 -1.8519999980926514,5.288000106811523 -1.8519999980926514,5.288000106811523 C-1.8519999980926514,5.288000106811523 0.8640000224113464,6.866000175476074 0.8640000224113464,6.866000175476074 C0.8640000224113464,6.866000175476074 0.8640000224113464,6.866000175476074 0.8640000224113464,6.866000175476074 C0.8640000224113464,6.866000175476074 3.9170000553131104,8.64799976348877 3.9170000553131104,8.64799976348877 C3.9170000553131104,8.64799976348877 7.196000099182129,10.560999870300293 7.196000099182129,10.560999870300293 C7.196000099182129,10.560999870300293 7.196000099182129,10.560999870300293 7.196000099182129,10.560999870300293 C7.196000099182129,10.560999870300293 8.656999588012695,11.413999557495117 8.656999588012695,11.413999557495117 C9.04699993133545,11.640999794006348 9.468999862670898,11.727999687194824 9.880000114440918,11.706000328063965 C10.595000267028809,11.673999786376953 11.277000427246094,11.295000076293945 11.654999732971191,10.62600040435791 C11.654999732971191,10.62600040435791 12.413000106811523,9.34000015258789 12.413000106811523,9.34000015258789 C12.96500015258789,8.388999938964844 12.72599983215332,7.190000057220459 11.881999969482422,6.531000137329102 C11.881999969482422,6.531000137329102 11.904000282287598,6.510000228881836 11.904000282287598,6.510000228881836 C15.064000129699707,1.097000002861023 13.236000061035156,-5.861999988555908 7.813000202178955,-9.027000427246094 C7.813000202178955,-9.027000427246094 5.875999927520752,-10.151000022888184 5.875999927520752,-10.151000022888184 C0.453000009059906,-13.315999984741211 -6.505000114440918,-11.51099967956543 -9.664999961853027,-6.086999893188477 C-9.664999961853027,-6.086999893188477 -9.687999725341797,-6.056000232696533 -9.687999725341797,-6.056000232696533 C-10.684000015258789,-6.454999923706055 -11.843000411987305,-6.077000141143799 -12.404999732971191,-5.126999855041504 C-12.404999732971191,-5.126999855041504 -13.151000022888184,-3.8299999237060547 -13.151000022888184,-3.8299999237060547 C-13.628000259399414,-3.0299999713897705 -13.520000457763672,-2.0369999408721924 -12.967000007629395,-1.3559999465942383 C-12.967000007629395,-1.3559999465942383 -12.956999778747559,-1.3559999465942383 -12.956999778747559,-1.3559999465942383 C-12.805999755859375,-1.1619999408721924 -12.609999656677246,-0.9769999980926514 -12.371999740600586,-0.8479999899864197 C-12.371999740600586,-0.8479999899864197 -11.21399974822998,-0.17900000512599945 -11.21399974822998,-0.17900000512599945"></path></g><g opacity="1" transform="matrix(1,0,0,1,0,0)"><g opacity="1" transform="matrix(1,0,0,1,917.6380004882812,654.8770141601562)"><g opacity="1" transform="matrix(1,0,0,1,0,0)"><path stroke-linecap="round" stroke-linejoin="round" fill-opacity="0" stroke="rgb(35,31,32)" stroke-opacity="1" stroke-width="0.5" d=" M10.791000366210938,6.288000106811523 C10.791000366210938,6.288000106811523 -10.527000427246094,-6.140999794006348 -10.527000427246094,-6.140999794006348 C-10.527000427246094,-6.140999794006348 -10.595999717712402,-6.179999828338623 -10.595999717712402,-6.179999828338623 C-10.595999717712402,-6.179999828338623 -10.791000366210938,-6.288000106811523 -10.791000366210938,-6.288000106811523"></path></g></g><g opacity="1" transform="matrix(1,0,0,1,921.9240112304688,660.77001953125)"><g opacity="1" transform="matrix(1,0,0,1,0,0)"><path stroke-linecap="round" stroke-linejoin="round" fill-opacity="0" stroke="rgb(35,31,32)" stroke-opacity="1" stroke-width="0.5" d=" M1.4830000400543213,-2.5339999198913574 C1.4830000400543213,-2.5339999198913574 -1.4830000400543213,2.5339999198913574 -1.4830000400543213,2.5339999198913574"></path></g></g><g opacity="1" transform="matrix(1,0,0,1,916.155029296875,657.4099731445312)"><path stroke-linecap="round" stroke-linejoin="round" fill-opacity="0" stroke="rgb(35,31,32)" stroke-opacity="1" stroke-width="0.5" d=" M1.4830000400543213,-2.5329999923706055 C1.4830000400543213,-2.5329999923706055 -1.4830000400543213,2.5329999923706055 -1.4830000400543213,2.5329999923706055"></path></g><g opacity="1" transform="matrix(1,0,0,1,910.0999755859375,653.8770141601562)"><path stroke-linecap="round" stroke-linejoin="round" fill-opacity="0" stroke="rgb(35,31,32)" stroke-opacity="1" stroke-width="0.5" d=" M1.4769999980926514,-2.5339999198913574 C1.4769999980926514,-2.5339999198913574 -1.4769999980926514,2.5339999198913574 -1.4769999980926514,2.5339999198913574"></path></g><g opacity="1" transform="matrix(1,0,0,1,913.125,655.6380004882812)"><path stroke-linecap="round" stroke-linejoin="round" fill-opacity="0" stroke="rgb(35,31,32)" stroke-opacity="1" stroke-width="0.5" d=" M1.4830000400543213,-2.5339999198913574 C1.4830000400543213,-2.5339999198913574 -1.4830000400543213,2.5339999198913574 -1.4830000400543213,2.5339999198913574"></path></g><g opacity="1" transform="matrix(1,0,0,1,906.7880249023438,651.9439697265625)"><path stroke-linecap="round" stroke-linejoin="round" fill-opacity="0" stroke="rgb(35,31,32)" stroke-opacity="1" stroke-width="0.5" d=" M1.4769999980926514,-2.5339999198913574 C1.4769999980926514,-2.5339999198913574 -1.4769999980926514,2.5339999198913574 -1.4769999980926514,2.5339999198913574"></path></g><g opacity="1" transform="matrix(1,0,0,1,918.8720092773438,658.9929809570312)"><g opacity="1" transform="matrix(1,0,0,1,0,0)"><path stroke-linecap="round" stroke-linejoin="round" fill-opacity="0" stroke="rgb(35,31,32)" stroke-opacity="1" stroke-width="0.5" d=" M1.4830000400543213,-2.5280001163482666 C1.4830000400543213,-2.5280001163482666 -1.4830000400543213,2.5280001163482666 -1.4830000400543213,2.5280001163482666"></path></g></g><g opacity="1" transform="matrix(1,0,0,1,925.197998046875,662.6829833984375)"><g opacity="1" transform="matrix(1,0,0,1,0,0)"><path stroke-linecap="round" stroke-linejoin="round" fill-opacity="0" stroke="rgb(35,31,32)" stroke-opacity="1" stroke-width="0.5" d=" M1.4769999980926514,-2.5339999198913574 C1.4769999980926514,-2.5339999198913574 -1.4769999980926514,2.5339999198913574 -1.4769999980926514,2.5339999198913574"></path></g></g></g></g></g><g transform="matrix(0.9984541535377502,-0.055581726133823395,0.055581726133823395,0.9984541535377502,-840.712890625,-573.095947265625)" opacity="1" style="display: block;"><g opacity="1" transform="matrix(1,0,0,1,957.5830078125,708.7689819335938)"><path fill="rgb(245,158,196)" fill-opacity="1" d=" M-4.357999801635742,-4.734000205993652 C-3.7960000038146973,-4.830999851226807 -3.188999891281128,-4.744999885559082 -2.63700008392334,-4.474999904632568 C-2.63700008392334,-4.474999904632568 5.177000045776367,-0.48899999260902405 5.177000045776367,-0.48899999260902405 C6.552000045776367,0.21299999952316284 7.0929999351501465,1.8880000114440918 6.400000095367432,3.259999990463257 C5.9019999504089355,4.2220001220703125 4.927999973297119,4.7729997634887695 3.9100000858306885,4.7729997634887695 C3.48799991607666,4.7729997634887695 3.0439999103546143,4.676000118255615 2.6440000534057617,4.4710001945495605 C2.6440000534057617,4.4710001945495605 -5.181000232696533,0.49399998784065247 -5.181000232696533,0.49399998784065247 C-6.554999828338623,-0.2070000022649765 -7.0960001945495605,-1.88100004196167 -6.39300012588501,-3.253999948501587 C-5.9710001945495605,-4.074999809265137 -5.202000141143799,-4.605000019073486 -4.357999801635742,-4.734000205993652"></path></g><g opacity="1" transform="matrix(1,0,0,1,955.0479736328125,713.7360229492188)"><path fill="rgb(245,158,196)" fill-opacity="1" d=" M5.178999900817871,-0.4970000088214874 C6.553999900817871,0.20499999821186066 7.093999862670898,1.8799999952316284 6.390999794006348,3.252000093460083 C5.892000198364258,4.223999977111816 4.920000076293945,4.775000095367432 3.9019999504089355,4.775000095367432 C3.4690001010894775,4.775000095367432 3.0360000133514404,4.677999973297119 2.634999990463257,4.4730000495910645 C2.634999990463257,4.4730000495910645 -5.178999900817871,0.4860000014305115 -5.178999900817871,0.4860000014305115 C-6.553999900817871,-0.2160000056028366 -7.09499979019165,-1.8910000324249268 -6.390999794006348,-3.263000011444092 C-6.1529998779296875,-3.739000082015991 -5.784999847412109,-4.126999855041504 -5.3520002365112305,-4.375999927520752 C-4.919000148773193,-4.635000228881836 -4.420000076293945,-4.775000095367432 -3.9119999408721924,-4.775000095367432 C-3.490000009536743,-4.775000095367432 -3.046999931335449,-4.677000045776367 -2.6459999084472656,-4.4720001220703125 C-2.6459999084472656,-4.4720001220703125 5.178999900817871,-0.4970000088214874 5.178999900817871,-0.4970000088214874z"></path></g><g opacity="1" transform="matrix(1,0,0,1,952.447998046875,718.8140258789062)"><path fill="rgb(245,158,196)" fill-opacity="1" d=" M5.182000160217285,-0.4860000014305115 C6.546000003814697,0.2160000056028366 7.0970001220703125,1.8910000324249268 6.394000053405762,3.263000011444092 C5.894999980926514,4.224999904632568 4.921999931335449,4.775000095367432 3.9149999618530273,4.775000095367432 C3.4830000400543213,4.775000095367432 3.049999952316284,4.677000045776367 2.638000011444092,4.4720001220703125 C2.638000011444092,4.4720001220703125 -5.176000118255615,0.4860000014305115 -5.176000118255615,0.4860000014305115 C-6.551000118255615,-0.20600000023841858 -7.0920000076293945,-1.8910000324249268 -6.39900016784668,-3.252000093460083 C-5.900000095367432,-4.223999977111816 -4.927999973297119,-4.775000095367432 -3.9100000858306885,-4.775000095367432 C-3.4769999980926514,-4.775000095367432 -3.0439999103546143,-4.677999973297119 -2.6429998874664307,-4.4730000495910645 C-2.6429998874664307,-4.4730000495910645 5.182000160217285,-0.4860000014305115 5.182000160217285,-0.4860000014305115z"></path></g><g opacity="1" transform="matrix(1,0,0,1,942.6829833984375,719.47900390625)"><path fill="rgb(245,158,196)" fill-opacity="1" d=" M15.00100040435791,-1.2690000534057617 C15.00100040435791,-1.2690000534057617 14.946999549865723,-1.149999976158142 14.946999549865723,-1.149999976158142 C14.946999549865723,-1.149999976158142 7.120999813079834,-5.13700008392334 7.120999813079834,-5.13700008392334 C6.7210001945495605,-5.3420000076293945 6.289000034332275,-5.440000057220459 5.855999946594238,-5.440000057220459 C4.8379998207092285,-5.440000057220459 3.864000082015991,-4.888000011444092 3.365999937057495,-3.9159998893737793 C2.6730000972747803,-2.555000066757202 3.2139999866485596,-0.8700000047683716 4.589000225067139,-0.17800000309944153 C4.589000225067139,-0.17800000309944153 12.402999877929688,3.809000015258789 12.402999877929688,3.809000015258789 C12.402999877929688,3.809000015258789 12.381999969482422,3.8410000801086426 12.381999969482422,3.8410000801086426 C12.381999969482422,3.8410000801086426 4.567999839782715,-0.13500000536441803 4.567999839782715,-0.13500000536441803 C4.156000137329102,-0.3400000035762787 3.7239999771118164,-0.43799999356269836 3.2909998893737793,-0.43799999356269836 C2.2839999198913574,-0.43799999356269836 1.309999942779541,0.11400000005960464 0.8119999766349792,1.0750000476837158 C0.1080000028014183,2.447999954223633 0.6610000133514404,4.122000217437744 2.0350000858306885,4.823999881744385 C2.0350000858306885,4.823999881744385 9.199999809265137,8.487000465393066 9.199999809265137,8.487000465393066 C8.529000282287598,8.95199966430664 7.793000221252441,9.34000015258789 6.96999979019165,9.598999977111816 C6.96999979019165,9.598999977111816 -0.843999981880188,12.128000259399414 -0.843999981880188,12.128000259399414 C-6.526000022888184,13.96500015258789 -12.630000114440918,10.86299991607666 -14.470000267028809,5.190999984741211 C-14.82699966430664,4.089000225067139 -15.00100040435791,2.9660000801086426 -15.00100040435791,1.8639999628067017 C-15.00100040435791,-2.694999933242798 -12.08899974822998,-6.929999828338623 -7.511000156402588,-8.41100025177002 C-7.511000156402588,-8.41100025177002 5.585000038146973,-12.656000137329102 5.585000038146973,-12.656000137329102 C5.585000038146973,-12.656000137329102 6.0279998779296875,-11.295000076293945 6.0279998779296875,-11.295000076293945 C6.0279998779296875,-11.295000076293945 7.013000011444092,-10.116999626159668 7.013000011444092,-10.116999626159668 C6.579999923706055,-9.869000434875488 6.211999893188477,-9.479999542236328 5.973999977111816,-9.005000114440918 C5.270999908447266,-7.631999969482422 5.811999797821045,-5.958000183105469 7.186999797821045,-5.25600004196167 C7.186999797821045,-5.25600004196167 15.00100040435791,-1.2690000534057617 15.00100040435791,-1.2690000534057617z"></path></g><g opacity="1" transform="matrix(1,0,0,1,949.8909912109375,723.8170166015625)"><path fill="rgb(245,158,196)" fill-opacity="1" d=" M1.9919999837875366,4.14900016784668 C1.9919999837875366,4.14900016784668 -5.172999858856201,0.4860000014305115 -5.172999858856201,0.4860000014305115 C-6.547999858856201,-0.2160000056028366 -7.098999977111816,-1.8899999856948853 -6.395999908447266,-3.263000011444092 C-5.8979997634887695,-4.223999977111816 -4.923999786376953,-4.776000022888184 -3.9179999828338623,-4.776000022888184 C-3.484999895095825,-4.776000022888184 -3.052000045776367,-4.677999973297119 -2.6410000324249268,-4.4730000495910645 C-2.6410000324249268,-4.4730000495910645 5.172999858856201,-0.4970000088214874 5.172999858856201,-0.4970000088214874 C6.547999858856201,0.20499999821186066 7.098999977111816,1.8910000324249268 6.395999908447266,3.252000093460083 C5.8979997634887695,4.223999977111816 4.925000190734863,4.776000022888184 3.9079999923706055,4.776000022888184 C3.4749999046325684,4.776000022888184 3.0409998893737793,4.677999973297119 2.6410000324249268,4.4730000495910645 C2.6410000324249268,4.4730000495910645 2.002000093460083,4.14900016784668 2.002000093460083,4.14900016784668 C2.002000093460083,4.14900016784668 1.9919999837875366,4.14900016784668 1.9919999837875366,4.14900016784668z"></path></g><g opacity="1" transform="matrix(1,0,0,1,949.5469970703125,702.781005859375)"><path fill="rgb(245,158,196)" fill-opacity="1" d=" M1.7619999647140503,-4.644999980926514 C1.7619999647140503,-4.644999980926514 3.677999973297119,1.253999948501587 3.677999973297119,1.253999948501587 C2.8340001106262207,1.3830000162124634 2.065999984741211,1.9119999408721924 1.6440000534057617,2.7330000400543213 C0.9399999976158142,4.105000019073486 1.4800000190734863,5.78000020980835 2.8550000190734863,6.48199987411499 C2.4549999237060547,6.2769999504089355 2.01200008392334,6.179999828338623 1.5889999866485596,6.179999828338623 C1.0809999704360962,6.179999828338623 0.5820000171661377,6.320000171661377 0.14900000393390656,6.579999923706055 C0.14900000393390656,6.579999923706055 -0.8360000252723694,5.4019999504089355 -0.8360000252723694,5.4019999504089355 C-0.8360000252723694,5.4019999504089355 -1.2790000438690186,4.040999889373779 -1.2790000438690186,4.040999889373779 C-1.2790000438690186,4.040999889373779 -3.5409998893737793,-2.927000045776367 -3.5409998893737793,-2.927000045776367 C-4.01800012588501,-4.395999908447266 -3.2170000076293945,-5.9629998207092285 -1.7549999952316284,-6.439000129699707 C-1.4630000591278076,-6.535999774932861 -1.1710000038146973,-6.579999923706055 -0.8899999856948853,-6.579999923706055 C0.28999999165534973,-6.579999923706055 1.3830000162124634,-5.822999954223633 1.7619999647140503,-4.644999980926514"></path></g><g opacity="1" transform="matrix(1,0,0,1,948.489990234375,707.5029907226562)"><path fill="rgb(35,31,32)" fill-opacity="1" d=" M0.22200000286102295,0.9190000295639038 C0.12200000137090683,0.9190000295639038 0.028999999165534973,0.8550000190734863 -0.004999999888241291,0.7540000081062317 C-0.004999999888241291,0.7540000081062317 -0.4490000009536743,-0.6060000061988831 -0.4490000009536743,-0.6060000061988831 C-0.49000000953674316,-0.7300000190734863 -0.41999998688697815,-0.8650000095367432 -0.29600000381469727,-0.906000018119812 C-0.1720000058412552,-0.9480000138282776 -0.035999998450279236,-0.8790000081062317 0.004999999888241291,-0.7540000081062317 C0.004999999888241291,-0.7540000081062317 0.4490000009536743,0.6069999933242798 0.4490000009536743,0.6069999933242798 C0.49000000953674316,0.7310000061988831 0.41999998688697815,0.8659999966621399 0.29600000381469727,0.906000018119812 C0.2709999978542328,0.9150000214576721 0.24699999392032623,0.9190000295639038 0.22200000286102295,0.9190000295639038"></path></g><g opacity="1" transform="matrix(1,0,0,1,953.0159912109375,713.5889892578125)"><path fill="rgb(35,31,32)" fill-opacity="1" d=" M4.668000221252441,4.857999801635742 C4.63100004196167,4.857999801635742 4.593999862670898,4.848999977111816 4.559000015258789,4.831999778747559 C4.559000015258789,4.831999778747559 -3.255000114440918,0.8460000157356262 -3.255000114440918,0.8460000157356262 C-3.9769999980926514,0.47699999809265137 -4.511000156402588,-0.14900000393390656 -4.758999824523926,-0.9169999957084656 C-5.006999969482422,-1.684000015258789 -4.939000129699707,-2.503000020980835 -4.570000171661377,-3.2239999771118164 C-4.315999984741211,-3.7300000190734863 -3.9149999618530273,-4.160999774932861 -3.437999963760376,-4.434000015258789 C-2.556999921798706,-4.964000225067139 -1.4019999504089355,-4.995999813079834 -0.5049999952316284,-4.5370001792907715 C-0.3880000114440918,-4.4770002365112305 -0.34200000762939453,-4.334000110626221 -0.4020000100135803,-4.2170000076293945 C-0.46299999952316284,-4.098999977111816 -0.6050000190734863,-4.054999828338623 -0.7229999899864197,-4.113999843597412 C-1.4739999771118164,-4.5 -2.447000026702881,-4.473999977111816 -3.197999954223633,-4.0229997634887695 C-3.5980000495910645,-3.7939999103546143 -3.933000087738037,-3.434000015258789 -4.145999908447266,-3.009000062942505 C-4.459000110626221,-2.3989999294281006 -4.513999938964844,-1.7089999914169312 -4.304999828338623,-1.062000036239624 C-4.0970001220703125,-0.4169999957084656 -3.6459999084472656,0.11100000143051147 -3.0380001068115234,0.421999990940094 C-3.0380001068115234,0.421999990940094 4.776000022888184,4.408999919891357 4.776000022888184,4.408999919891357 C4.894000053405762,4.4679999351501465 4.940000057220459,4.611000061035156 4.880000114440918,4.728000164031982 C4.8379998207092285,4.810999870300293 4.755000114440918,4.857999801635742 4.668000221252441,4.857999801635742"></path></g><g opacity="1" transform="matrix(1,0,0,1,951.68798828125,718.6630249023438)"><path fill="rgb(35,31,32)" fill-opacity="1" d=" M3.3980000019073486,4.861999988555908 C3.3610000610351562,4.861999988555908 3.325000047683716,4.853000164031982 3.2899999618530273,4.835999965667725 C3.2899999618530273,4.835999965667725 -4.52400016784668,0.8489999771118164 -4.52400016784668,0.8489999771118164 C-5.241000175476074,0.4880000054836273 -5.775000095367432,-0.13300000131130219 -6.0269999504089355,-0.8999999761581421 C-6.28000020980835,-1.6699999570846558 -6.2170000076293945,-2.490000009536743 -5.85099983215332,-3.2090001106262207 C-5.328999996185303,-4.230000019073486 -4.294000148773193,-4.861999988555908 -3.1500000953674316,-4.861999988555908 C-2.6630001068115234,-4.861999988555908 -2.200000047683716,-4.751999855041504 -1.774999976158142,-4.5329999923706055 C-1.774999976158142,-4.5329999923706055 6.048999786376953,-0.546999990940094 6.048999786376953,-0.546999990940094 C6.166999816894531,-0.4880000054836273 6.2129998207092285,-0.3449999988079071 6.1529998779296875,-0.2280000001192093 C6.093999862670898,-0.10999999940395355 5.948999881744385,-0.06400000303983688 5.834000110626221,-0.12300000339746475 C5.834000110626221,-0.12300000339746475 -1.9919999837875366,-4.110000133514404 -1.9919999837875366,-4.110000133514404 C-2.3510000705718994,-4.294000148773193 -2.739000082015991,-4.386000156402588 -3.1500000953674316,-4.386000156402588 C-4.114999771118164,-4.386000156402588 -4.986999988555908,-3.8519999980926514 -5.427999973297119,-2.992000102996826 C-5.736000061035156,-2.38700008392334 -5.7870001792907715,-1.6970000267028809 -5.573999881744385,-1.0490000247955322 C-5.36299991607666,-0.40299999713897705 -4.914000034332275,0.11999999731779099 -4.309000015258789,0.42399999499320984 C-4.309000015258789,0.42399999499320984 3.50600004196167,4.413000106811523 3.50600004196167,4.413000106811523 C3.624000072479248,4.4720001220703125 3.6700000762939453,4.614999771118164 3.609999895095825,4.73199987411499 C3.568000078201294,4.815000057220459 3.484999895095825,4.861999988555908 3.3980000019073486,4.861999988555908"></path></g><g opacity="1" transform="matrix(1,0,0,1,949.1259765625,723.5029907226562)"><path fill="rgb(35,31,32)" fill-opacity="1" d=" M2.7669999599456787,4.699999809265137 C2.7669999599456787,4.699999809265137 2.756999969482422,4.699999809265137 2.756999969482422,4.699999809265137 C2.7190001010894775,4.699999809265137 2.680999994277954,4.690000057220459 2.6480000019073486,4.673999786376953 C2.6480000019073486,4.673999786376953 -4.515999794006348,1.0110000371932983 -4.515999794006348,1.0110000371932983 C-5.242000102996826,0.640999972820282 -5.78000020980835,0.010999999940395355 -6.0289998054504395,-0.7609999775886536 C-6.2769999504089355,-1.5260000228881836 -6.210999965667725,-2.3420000076293945 -5.843999862670898,-3.058000087738037 C-5.318999767303467,-4.072000026702881 -4.2870001792907715,-4.699999809265137 -3.1530001163482666,-4.699999809265137 C-2.6710000038146973,-4.699999809265137 -2.2049999237060547,-4.589000225067139 -1.7690000534057617,-4.372000217437744 C-1.7690000534057617,-4.372000217437744 6.046000003814697,-0.3959999978542328 6.046000003814697,-0.3959999978542328 C6.164000034332275,-0.335999995470047 6.210000038146973,-0.1940000057220459 6.150000095367432,-0.07599999755620956 C6.090000152587891,0.041999999433755875 5.947000026702881,0.08699999749660492 5.830999851226807,0.02800000086426735 C5.830999851226807,0.02800000086426735 -1.9839999675750732,-3.947999954223633 -1.9839999675750732,-3.947999954223633 C-2.3519999980926514,-4.130000114440918 -2.744999885559082,-4.223999977111816 -3.1530001163482666,-4.223999977111816 C-4.109000205993652,-4.223999977111816 -4.9770002365112305,-3.694999933242798 -5.420000076293945,-2.8399999141693115 C-5.729000091552734,-2.23799991607666 -5.783999919891357,-1.5509999990463257 -5.577000141143799,-0.9079999923706055 C-5.367000102996826,-0.25600001215934753 -4.913000106811523,0.2750000059604645 -4.300000190734863,0.5879999995231628 C-4.300000190734863,0.5879999995231628 2.8519999980926514,4.24399995803833 2.8519999980926514,4.24399995803833 C2.937999963760376,4.281000137329102 3,4.364999771118164 3,4.461999893188477 C3,4.5929999351501465 2.8980000019073486,4.699999809265137 2.7669999599456787,4.699999809265137"></path></g><g opacity="1" transform="matrix(1,0,0,1,955.5540161132812,708.6370239257812)"><path fill="rgb(35,31,32)" fill-opacity="1" d=" M4.672999858856201,4.840000152587891 C4.636000156402588,4.840000152587891 4.599999904632568,4.830999851226807 4.565000057220459,4.814000129699707 C4.565000057220459,4.814000129699707 -3.259999990463257,0.8389999866485596 -3.259999990463257,0.8389999866485596 C-3.9830000400543213,0.4699999988079071 -4.515999794006348,-0.15600000321865082 -4.763999938964844,-0.9240000247955322 C-5.013000011444092,-1.6920000314712524 -4.943999767303467,-2.509999990463257 -4.576000213623047,-3.2309999465942383 C-4.131999969482422,-4.0920000076293945 -3.306999921798706,-4.692999839782715 -2.365000009536743,-4.8379998207092285 C-2.234999895095825,-4.855999946594238 -2.11299991607666,-4.769000053405762 -2.0940001010894775,-4.638999938964844 C-2.0739998817443848,-4.508999824523926 -2.1630001068115234,-4.388000011444092 -2.2929999828338623,-4.368000030517578 C-3.0840001106262207,-4.244999885559082 -3.7799999713897705,-3.73799991607666 -4.1529998779296875,-3.0139999389648438 C-4.464000225067139,-2.4070000648498535 -4.519000053405762,-1.7170000076293945 -4.310999870300293,-1.0720000267028809 C-4.1020002365112305,-0.42500001192092896 -3.6519999504089355,0.10300000011920929 -3.0429999828338623,0.414000004529953 C-3.0429999828338623,0.414000004529953 4.781000137329102,4.390999794006348 4.781000137329102,4.390999794006348 C4.8979997634887695,4.449999809265137 4.945000171661377,4.5929999351501465 4.885000228881836,4.710000038146973 C4.8429999351501465,4.793000221252441 4.760000228881836,4.840000152587891 4.672999858856201,4.840000152587891"></path></g></g><g transform="matrix(1,0,0,1,126.02300262451172,91.23100280761719)" opacity="1" style="display: block;"><g opacity="1" transform="matrix(1,0,0,1,0,0)"><path fill="rgb(240,78,55)" fill-opacity="1" d=" M1.281999945640564,1.0130000114440918 C1.281999945640564,1.0130000114440918 -1.1200000047683716,1.1890000104904175 -1.1200000047683716,1.1890000104904175 C-1.7089999914169312,1.2309999465942383 -2.2239999771118164,0.7879999876022339 -2.2669999599456787,0.19900000095367432 C-2.2669999599456787,0.19900000095367432 -2.2709999084472656,0.13300000131130219 -2.2709999084472656,0.13300000131130219 C-2.313999891281128,-0.4560000002384186 -1.871000051498413,-0.9700000286102295 -1.281999945640564,-1.0130000114440918 C-1.281999945640564,-1.0130000114440918 1.1200000047683716,-1.1890000104904175 1.1200000047683716,-1.1890000104904175 C1.7100000381469727,-1.2309999465942383 2.2249999046325684,-0.7879999876022339 2.2669999599456787,-0.19900000095367432 C2.2669999599456787,-0.19900000095367432 2.2709999084472656,-0.13300000131130219 2.2709999084472656,-0.13300000131130219 C2.313999891281128,0.4560000002384186 1.871999979019165,0.9700000286102295 1.281999945640564,1.0130000114440918"></path></g></g><g transform="matrix(1,0,0,1,74.06099700927734,104.49099731445312)" opacity="1" style="display: block;"><g opacity="1" transform="matrix(1,0,0,1,0,0)"><path fill="rgb(240,78,55)" fill-opacity="1" d=" M1.0980000495910645,0 C1.0980000495910645,0.6060000061988831 0.6060000061988831,1.0959999561309814 0,1.0959999561309814 C-0.6069999933242798,1.0959999561309814 -1.0980000495910645,0.6060000061988831 -1.0980000495910645,0 C-1.0980000495910645,-0.6050000190734863 -0.6069999933242798,-1.0959999561309814 0,-1.0959999561309814 C0.6060000061988831,-1.0959999561309814 1.0980000495910645,-0.6050000190734863 1.0980000495910645,0"></path></g></g><g transform="matrix(1,0,0,1,96.44100189208984,118.44999694824219)" opacity="1" style="display: block;"><g opacity="1" transform="matrix(1,0,0,1,0,0)"><path fill="rgb(240,78,55)" fill-opacity="1" d=" M1.0980000495910645,0 C1.0980000495910645,0.6060000061988831 0.6060000061988831,1.0959999561309814 0,1.0959999561309814 C-0.6069999933242798,1.0959999561309814 -1.0980000495910645,0.6060000061988831 -1.0980000495910645,0 C-1.0980000495910645,-0.6050000190734863 -0.6069999933242798,-1.0959999561309814 0,-1.0959999561309814 C0.6060000061988831,-1.0959999561309814 1.0980000495910645,-0.6050000190734863 1.0980000495910645,0"></path></g></g><g transform="matrix(1,0,0,1,99.05500030517578,120.03600311279297)" opacity="1" style="display: block;"><g opacity="1" transform="matrix(1,0,0,1,0,0)"><path fill="rgb(240,78,55)" fill-opacity="1" d=" M1.0980000495910645,0 C1.0980000495910645,0.6060000061988831 0.6060000061988831,1.0959999561309814 0,1.0959999561309814 C-0.6069999933242798,1.0959999561309814 -1.0980000495910645,0.6060000061988831 -1.0980000495910645,0 C-1.0980000495910645,-0.6050000190734863 -0.6069999933242798,-1.0959999561309814 0,-1.0959999561309814 C0.6060000061988831,-1.0959999561309814 1.0980000495910645,-0.6050000190734863 1.0980000495910645,0"></path></g></g><g transform="matrix(1,0,0,1,95.34300231933594,125)" opacity="1" style="display: block;"><g opacity="1" transform="matrix(1,0,0,1,0,0)"><path fill="rgb(245,158,196)" fill-opacity="1" d=" M1.0980000495910645,0 C1.0980000495910645,0.6060000061988831 0.6060000061988831,1.0959999561309814 0,1.0959999561309814 C-0.6069999933242798,1.0959999561309814 -1.0980000495910645,0.6060000061988831 -1.0980000495910645,0 C-1.0980000495910645,-0.6050000190734863 -0.6069999933242798,-1.0959999561309814 0,-1.0959999561309814 C0.6060000061988831,-1.0959999561309814 1.0980000495910645,-0.6050000190734863 1.0980000495910645,0"></path></g></g><g transform="matrix(1,0,0,1,141.1909942626953,82.18599700927734)" opacity="1" style="display: block;"><g opacity="1" transform="matrix(1,0,0,1,0,0)"><path fill="rgb(240,78,55)" fill-opacity="1" d=" M1.0980000495910645,0 C1.0980000495910645,0.6050000190734863 0.6060000061988831,1.0959999561309814 0,1.0959999561309814 C-0.6069999933242798,1.0959999561309814 -1.0980000495910645,0.6050000190734863 -1.0980000495910645,0 C-1.0980000495910645,-0.6060000061988831 -0.6069999933242798,-1.0959999561309814 0,-1.0959999561309814 C0.6060000061988831,-1.0959999561309814 1.0980000495910645,-0.6060000061988831 1.0980000495910645,0"></path></g></g><g transform="matrix(1,0,0,1,138.88900756835938,91.65899658203125)" opacity="1" style="display: block;"><g opacity="1" transform="matrix(1,0,0,1,0,0)"><path fill="rgb(240,78,55)" fill-opacity="1" d=" M1.0980000495910645,0 C1.0980000495910645,0.6050000190734863 0.6060000061988831,1.0959999561309814 0,1.0959999561309814 C-0.6069999933242798,1.0959999561309814 -1.0980000495910645,0.6050000190734863 -1.0980000495910645,0 C-1.0980000495910645,-0.6060000061988831 -0.6069999933242798,-1.0959999561309814 0,-1.0959999561309814 C0.6060000061988831,-1.0959999561309814 1.0980000495910645,-0.6060000061988831 1.0980000495910645,0"></path></g></g><g transform="matrix(1,0,0,1,132.14199829101562,89.19999694824219)" opacity="1" style="display: block;"><g opacity="1" transform="matrix(1,0,0,1,0,0)"><path fill="rgb(240,78,55)" fill-opacity="1" d=" M1.0980000495910645,0 C1.0980000495910645,0.6050000190734863 0.6060000061988831,1.0959999561309814 0,1.0959999561309814 C-0.6069999933242798,1.0959999561309814 -1.0980000495910645,0.6050000190734863 -1.0980000495910645,0 C-1.0980000495910645,-0.6060000061988831 -0.6069999933242798,-1.0959999561309814 0,-1.0959999561309814 C0.6060000061988831,-1.0959999561309814 1.0980000495910645,-0.6060000061988831 1.0980000495910645,0"></path></g></g><g transform="matrix(1,0,0,1,70.0510025024414,87.01200103759766)" opacity="1" style="display: block;"><g opacity="1" transform="matrix(1,0,0,1,0,0)"><path fill="rgb(255,255,255)" fill-opacity="1" d=" M0,0"></path></g></g></g><g clip-path="url(#__lottie_element_334)" transform="matrix(1,0,0,1,-918,-762)" opacity="1" style="display: block;"><g transform="matrix(1,0,0,1,756,642)" opacity="1" style="display: block;"><g opacity="1" transform="matrix(1,0,0,1,0,0)"><g opacity="1" transform="matrix(1,0,0,1,0,0)"><path stroke-linecap="round" stroke-linejoin="miter" fill-opacity="0" stroke-miterlimit="4" stroke="rgb(239,78,55)" stroke-opacity="1" stroke-width="19.876" d=" M324.9150085449219,404.8110046386719 C337.7070007324219,407.5660095214844 352.9119873046875,409.6820068359375 369.3739929199219,409.64898681640625"></path></g><g opacity="1" transform="matrix(1,0,0,1,0,0)"><path stroke-linecap="round" stroke-linejoin="miter" fill-opacity="0" stroke-miterlimit="4" stroke="rgb(113,159,212)" stroke-opacity="1" stroke-width="27.964" d=" M406.92999267578125,405.5660095214844 C411.6619873046875,404.5050048828125 416.4230041503906,403.2099914550781 421.1929931640625,401.65399169921875"></path></g><g opacity="1" transform="matrix(1,0,0,1,0,0)"><path stroke-linecap="round" stroke-linejoin="miter" fill-opacity="0" stroke-miterlimit="4" stroke="rgb(245,158,196)" stroke-opacity="1" stroke-width="25.301" d=" M476.3789978027344,377.9880065917969 C496.10699462890625,369.5249938964844 503.9129943847656,366.87200927734375 506.9960021972656,366.1210021972656"></path></g></g></g><g transform="matrix(1,0,0,1,756,642)" opacity="1" style="display: block;"><g opacity="1" transform="matrix(1,0,0,1,0,0)"><g opacity="1" transform="matrix(1,0,0,1,0,0)"><path stroke-linecap="round" stroke-linejoin="miter" fill-opacity="0" stroke-miterlimit="4" stroke="rgb(239,78,55)" stroke-opacity="1" stroke-width="4.86" d=" M280.74700927734375,352.9830017089844 C285.3380126953125,354.63800048828125 290.7959899902344,356.3420104980469 297.0270080566406,357.8370056152344"></path></g><g opacity="1" transform="matrix(1,0,0,1,0,0)"><path stroke-linecap="round" stroke-linejoin="miter" fill-opacity="0" stroke-miterlimit="4" stroke="rgb(239,78,55)" stroke-opacity="1" stroke-width="4.572" d=" M324.02099609375,361.96600341796875 C326.3580017089844,362.12799072265625 328.7510070800781,362.2449951171875 331.1960144042969,362.3089904785156"></path></g><g opacity="1" transform="matrix(1,0,0,1,0,0)"><path stroke-linecap="round" stroke-linejoin="miter" fill-opacity="0" stroke-miterlimit="4" stroke="rgb(224,184,159)" stroke-opacity="1" stroke-width="2.723" d=" M377.7070007324219,357.17401123046875 C379.39801025390625,356.7560119628906 381.10101318359375,356.30999755859375 382.8169860839844,355.8330078125"></path></g><g opacity="1" transform="matrix(1,0,0,1,0,0)"><path stroke-linecap="round" stroke-linejoin="miter" fill-opacity="0" stroke-miterlimit="4" stroke="rgb(239,78,55)" stroke-opacity="1" stroke-width="5.487" d=" M411.0400085449219,345.7330017089844 C414.0780029296875,344.47900390625 416.98699951171875,343.2560119628906 419.7770080566406,342.06298828125"></path></g><g opacity="1" transform="matrix(1,0,0,1,0,0)"><path stroke-linecap="round" stroke-linejoin="miter" fill-opacity="0" stroke-miterlimit="4" stroke="rgb(239,78,55)" stroke-opacity="1" stroke-width="5.011" d=" M444.7200012207031,330.8760070800781 C445.0249938964844,330.7330017089844 445.3290100097656,330.59100341796875 445.6310119628906,330.4490051269531"></path></g><g opacity="1" transform="matrix(1,0,0,1,0,0)"><path stroke-linecap="round" stroke-linejoin="miter" fill-opacity="0" stroke-miterlimit="4" stroke="rgb(224,184,159)" stroke-opacity="1" stroke-width="5.52" d=" M486.5920104980469,313.0830078125 C492.5360107421875,311.6109924316406 498.3699951171875,311.0740051269531 505.14898681640625,311.5459899902344"></path></g><g opacity="1" transform="matrix(1,0,0,1,0,0)"><path stroke-linecap="round" stroke-linejoin="miter" fill-opacity="0" stroke-miterlimit="4" stroke="rgb(239,78,55)" stroke-opacity="1" stroke-width="1.738" d=" M524.5549926757812,314.843994140625 C526.6060180664062,315.34100341796875 528.75,315.89300537109375 531,316.5 M264,345.5 C264,345.5 264.9419860839844,346.0669860839844 266.75,346.9930114746094"></path></g></g></g><g transform="matrix(1,0,0,1,756,642)" opacity="1" style="display: block;"><g opacity="1" transform="matrix(1,0,0,1,0,0)"><g opacity="1" transform="matrix(1,0,0,1,0,0)"><path stroke-linecap="round" stroke-linejoin="miter" fill-opacity="0" stroke-miterlimit="4" stroke="rgb(113,159,212)" stroke-opacity="1" stroke-width="5.362" d=" M326.03900146484375,390.58599853515625 C326.322998046875,390.6400146484375 326.6080017089844,390.6940002441406 326.89300537109375,390.74700927734375"></path></g><g opacity="1" transform="matrix(1,0,0,1,0,0)"><path stroke-linecap="round" stroke-linejoin="miter" fill-opacity="0" stroke-miterlimit="4" stroke="rgb(239,78,55)" stroke-opacity="1" stroke-width="4.255" d=" M346.31201171875,393.1099853515625 C347.72601318359375,393.1759948730469 349.135009765625,393.2139892578125 350.5329895019531,393.22198486328125"></path></g><g opacity="1" transform="matrix(1,0,0,1,0,0)"><path stroke-linecap="round" stroke-linejoin="miter" fill-opacity="0" stroke-miterlimit="4" stroke="rgb(239,78,55)" stroke-opacity="1" stroke-width="4.232" d=" M370.7550048828125,391.0840148925781 C371.28399658203125,390.989013671875 371.81201171875,390.8919982910156 372.34100341796875,390.7929992675781"></path></g><g opacity="1" transform="matrix(1,0,0,1,0,0)"><path stroke-linecap="round" stroke-linejoin="miter" fill-opacity="0" stroke-miterlimit="4" stroke="rgb(113,159,212)" stroke-opacity="1" stroke-width="7.147" d=" M370.1000061035156,391.20098876953125 C370.8210144042969,391.072998046875 371.5429992675781,390.9419860839844 372.2659912109375,390.8080139160156"></path></g><g opacity="1" transform="matrix(1,0,0,1,0,0)"><path stroke-linecap="round" stroke-linejoin="miter" fill-opacity="0" stroke-miterlimit="4" stroke="rgb(239,78,55)" stroke-opacity="1" stroke-width="5.23" d=" M402.5679931640625,383.5570068359375 C403.6860046386719,383.2330017089844 404.79901123046875,382.90399169921875 405.906005859375,382.5710144042969"></path></g><g opacity="1" transform="matrix(1,0,0,1,0,0)"><path stroke-linecap="round" stroke-linejoin="miter" fill-opacity="0" stroke-miterlimit="4" stroke="rgb(239,78,55)" stroke-opacity="1" stroke-width="3.738" d=" M436.20001220703125,371.7969970703125 C436.7869873046875,371.54998779296875 437.3680114746094,371.3030090332031 437.9419860839844,371.05499267578125"></path></g><g opacity="1" transform="matrix(1,0,0,1,0,0)"><path stroke-linecap="round" stroke-linejoin="miter" fill-opacity="0" stroke-miterlimit="4" stroke="rgb(113,159,212)" stroke-opacity="1" stroke-width="2.28" d=" M456.2030029296875,361.78399658203125 C457.5679931640625,360.9930114746094 458.9840087890625,360.24200439453125 460.45098876953125,359.52801513671875"></path></g><g opacity="1" transform="matrix(1,0,0,1,0,0)"><path stroke-linecap="round" stroke-linejoin="miter" fill-opacity="0" stroke-miterlimit="4" stroke="rgb(239,78,55)" stroke-opacity="1" stroke-width="4.698" d=" M472.3320007324219,354.80499267578125 C473.27899169921875,354.49700927734375 474.239013671875,354.1969909667969 475.2139892578125,353.9049987792969"></path></g><g opacity="1" transform="matrix(1,0,0,1,0,0)"><path stroke-linecap="round" stroke-linejoin="miter" fill-opacity="0" stroke-miterlimit="4" stroke="rgb(239,78,55)" stroke-opacity="1" stroke-width="6.134" d=" M479.8940124511719,352.5880126953125 C481.29998779296875,352.21600341796875 482.73199462890625,351.85699462890625 484.18798828125,351.5090026855469"></path></g><g opacity="1" transform="matrix(1,0,0,1,0,0)"><path stroke-linecap="round" stroke-linejoin="miter" fill-opacity="0" stroke-miterlimit="4" stroke="rgb(113,159,212)" stroke-opacity="1" stroke-width="4.686" d=" M514.8519897460938,345.8210144042969 C516.3049926757812,345.59600830078125 517.77197265625,345.3710021972656 519.2529907226562,345.14599609375"></path></g><g opacity="1" transform="matrix(1,0,0,1,0,0)"><path stroke-linecap="round" stroke-linejoin="miter" fill-opacity="0" stroke-miterlimit="4" stroke="rgb(239,78,55)" stroke-opacity="1" stroke-width="7.709" d=" M294.1289978027344,381.93499755859375 C294.93798828125,382.2149963378906 295.81201171875,382.5140075683594 296.7449951171875,382.82501220703125"></path></g></g></g><g transform="matrix(1,0,0,1,756,642)" opacity="1" style="display: block;"><g opacity="1" transform="matrix(1,0,0,1,0,0)"><g opacity="1" transform="matrix(1,0,0,1,0,0)"><path stroke-linecap="round" stroke-linejoin="miter" fill-opacity="0" stroke-miterlimit="4" stroke="rgb(245,158,196)" stroke-opacity="1" stroke-width="9.348" d=" M305.760986328125,426.6610107421875 C309.1499938964844,427.7019958496094 312.98199462890625,428.7330017089844 317.239990234375,429.6709899902344"></path></g><g opacity="1" transform="matrix(1,0,0,1,0,0)"><path stroke-linecap="round" stroke-linejoin="miter" fill-opacity="0" stroke-miterlimit="4" stroke="rgb(239,78,55)" stroke-opacity="1" stroke-width="6.387" d=" M354.552001953125,433.6340026855469 C356.0419921875,433.63800048828125 357.5539855957031,433.625 359.0899963378906,433.593994140625"></path></g><g opacity="1" transform="matrix(1,0,0,1,0,0)"><path stroke-linecap="round" stroke-linejoin="miter" fill-opacity="0" stroke-miterlimit="4" stroke="rgb(239,78,55)" stroke-opacity="1" stroke-width="11.885" d=" M406.62298583984375,427.2300109863281 C408.9700012207031,426.6199951171875 411.2330017089844,425.97100830078125 413.41900634765625,425.2860107421875"></path></g><g opacity="1" transform="matrix(1,0,0,1,0,0)"><path stroke-linecap="round" stroke-linejoin="miter" fill-opacity="0" stroke-miterlimit="4" stroke="rgb(245,158,196)" stroke-opacity="1" stroke-width="9.369" d=" M433.4700012207031,417.2699890136719 C434.1029968261719,416.96099853515625 434.7300109863281,416.6499938964844 435.35198974609375,416.33599853515625"></path></g><g opacity="1" transform="matrix(1,0,0,1,0,0)"><path stroke-linecap="round" stroke-linejoin="miter" fill-opacity="0" stroke-miterlimit="4" stroke="rgb(239,78,55)" stroke-opacity="1" stroke-width="9.309" d=" M467.1159973144531,398.0920104980469 C469.74700927734375,396.6159973144531 472.4320068359375,395.17401123046875 475.2139892578125,393.7869873046875"></path></g><g opacity="1" transform="matrix(1,0,0,1,0,0)"><path stroke-linecap="round" stroke-linejoin="miter" fill-opacity="0" stroke-miterlimit="4" stroke="rgb(239,78,55)" stroke-opacity="1" stroke-width="9.052" d=" M495.2300109863281,385.6940002441406 C498.44500732421875,384.6969909667969 501.82598876953125,383.78900146484375 505.406005859375,382.9859924316406"></path></g></g></g><g transform="matrix(1,0,0,1,756,642)" opacity="1" style="display: block;"><g opacity="1" transform="matrix(1,0,0,1,0,0)"><g opacity="1" transform="matrix(1,0,0,1,0,0)"><path stroke-linecap="round" stroke-linejoin="round" fill-opacity="0" stroke="rgb(245,158,196)" stroke-opacity="1" stroke-width="18.659" d=" M347.3429870605469,378.489013671875 C353.4639892578125,378.1260070800781 360.2049865722656,377.45001220703125 367.4440002441406,376.3169860839844"></path></g><g opacity="1" transform="matrix(1,0,0,1,0,0)"><path stroke-linecap="round" stroke-linejoin="round" fill-opacity="0" stroke="rgb(239,78,55)" stroke-opacity="1" stroke-width="7.025" d=" M385.3240051269531,372.75299072265625 C391.94000244140625,371.1510009765625 397.8900146484375,369.3810119628906 403.32000732421875,367.510986328125"></path></g><g opacity="1" transform="matrix(1,0,0,1,0,0)"><path stroke-linecap="round" stroke-linejoin="round" fill-opacity="0" stroke="rgb(239,78,55)" stroke-opacity="1" stroke-width="15.718" d=" M419.5450134277344,361.0660095214844 C423.1830139160156,359.4280090332031 426.5830078125,357.7720031738281 429.822998046875,356.135986328125"></path></g><g opacity="1" transform="matrix(1,0,0,1,0,0)"><path stroke-linecap="round" stroke-linejoin="round" fill-opacity="0" stroke="rgb(245,158,196)" stroke-opacity="1" stroke-width="7.48" d=" M452.4880065917969,344.73199462890625 C454.1400146484375,343.9939880371094 455.80499267578125,343.2919921875 457.4960021972656,342.6319885253906"></path></g><g opacity="1" transform="matrix(1,0,0,1,0,0)"><path stroke-linecap="round" stroke-linejoin="round" fill-opacity="0" stroke="rgb(239,78,55)" stroke-opacity="1" stroke-width="9.52" d=" M492.2130126953125,334.4280090332031 C495.91400146484375,333.8900146484375 499.6409912109375,333.42401123046875 503.2919921875,333.0379943847656"></path></g><g opacity="1" transform="matrix(1,0,0,1,0,0)"><path stroke-linecap="round" stroke-linejoin="round" fill-opacity="0" stroke="rgb(239,78,55)" stroke-opacity="1" stroke-width="12.92" d=" M534.7210083007812,332.4750061035156 C535.5759887695312,332.6239929199219 536.3389892578125,332.79901123046875 537,333 M311,377 C311,377 317.8039855957031,378.3609924316406 329.4429931640625,378.7439880371094"></path></g></g></g></g><g transform="matrix(2.7438340187072754,0.3798350691795349,-0.3798350691795349,2.7438340187072754,-1942.6829833984375,-2062.8310546875)" opacity="1" style="display: block;"><g opacity="1" transform="matrix(1,0,0,1,859.0989990234375,701.0659790039062)"><path fill="rgb(245,158,196)" fill-opacity="1" d=" M17.283000946044922,4.113999843597412 C17.283000946044922,4.113999843597412 17.283000946044922,9.895000457763672 17.283000946044922,9.895000457763672 C17.283000946044922,11.342000007629395 16.11400032043457,12.508999824523926 14.663999557495117,12.508999824523926 C14.03600025177002,12.508999824523926 13.472999572753906,12.293000221252441 13.019000053405762,11.935999870300293 C12.942999839782715,11.871000289916992 12.878999710083008,11.807000160217285 12.812999725341797,11.741999626159668 C12.336999893188477,11.265999794006348 12.045000076293945,10.619000434875488 12.045000076293945,9.895000457763672 C12.045000076293945,9.895000457763672 12.045000076293945,6.177999973297119 12.045000076293945,6.177999973297119 C12.045000076293945,4.590000152587891 10.119000434875488,3.7899999618530273 8.993000030517578,4.914000034332275 C8.993000030517578,4.914000034332275 5.465000152587891,8.446999549865723 5.465000152587891,8.446999549865723 C3.74399995803833,10.164999961853027 5.203999996185303,13.081000328063965 7.618000030517578,12.736000061035156 C7.618000030517578,12.736000061035156 7.671999931335449,12.725000381469727 7.671999931335449,12.725000381469727 C8.538000106811523,12.583999633789062 9.404000282287598,12.217000007629395 10.161999702453613,11.741999626159668 C10.335000038146973,11.633999824523926 10.519000053405762,11.557999610900879 10.723999977111816,11.493000030517578 C11.1899995803833,12.378999710083008 12.119999885559082,13.82699966430664 13.592000007629395,14.906999588012695 C13.409000396728516,15.295999526977539 13.104999542236328,15.630999565124512 12.704999923706055,15.880000114440918 C11.493000030517578,16.63599967956543 10.097000122070312,17.155000686645508 8.527999877929688,17.424999237060547 C6.71999979019165,17.726999282836914 4.9120001792907715,17.607999801635742 3.246000051498413,17.121999740600586 C2.8459999561309814,17.003000259399414 2.444999933242798,16.863000869750977 2.055999994277954,16.701000213623047 C2.055999994277954,16.701000213623047 -1.5379999876022339,14.291999816894531 -1.5379999876022339,14.291999816894531 C-1.5379999876022339,14.291999816894531 -2.5769999027252197,13.255000114440918 -2.5769999027252197,13.255000114440918 C-2.5769999027252197,13.255000114440918 -4.709000110626221,11.12600040435791 -4.709000110626221,11.12600040435791 C-4.709000110626221,11.12600040435791 -6.484000205993652,9.354999542236328 -6.484000205993652,9.354999542236328 C-6.484000205993652,9.354999542236328 -7.165999889373779,8.673999786376953 -7.165999889373779,8.673999786376953 C-7.165999889373779,8.673999786376953 -13.930000305175781,1.9220000505447388 -13.930000305175781,1.9220000505447388 C-18.399999618530273,-2.5409998893737793 -18.399999618530273,-9.779000282287598 -13.930000305175781,-14.241999626159668 C-11.6899995803833,-16.47800064086914 -8.769000053405762,-17.59000015258789 -5.835000038146973,-17.59000015258789 C-2.9019999504089355,-17.59000015258789 0.019999999552965164,-16.47800064086914 2.260999917984009,-14.241999626159668 C2.260999917984009,-14.241999626159668 4.901000022888184,-11.616000175476074 4.901000022888184,-11.616000175476074 C4.901000022888184,-11.616000175476074 14.859000205993652,-1.7089999914169312 14.859000205993652,-1.7089999914169312 C16.41699981689453,-0.16500000655651093 17.283000946044922,1.9320000410079956 17.283000946044922,4.113999843597412"></path></g><g opacity="1" transform="matrix(1,0,0,1,871.3909912109375,714.2169799804688)"><path fill="rgb(33,52,104)" fill-opacity="1" d=" M0.7160000205039978,-1.2039999961853027 C1.6139999628067017,-0.43700000643730164 1.7879999876022339,0.7940000295639038 1.3009999990463257,1.75600004196167 C-0.17100000381469727,0.6759999990463257 -1.1019999980926514,-0.7720000147819519 -1.5670000314712524,-1.6579999923706055 C-0.8100000023841858,-1.8739999532699585 0.08799999952316284,-1.7339999675750732 0.6729999780654907,-1.2369999885559082 C0.6729999780654907,-1.2369999885559082 0.7160000205039978,-1.2039999961853027 0.7160000205039978,-1.2039999961853027z"></path></g><g opacity="1" transform="matrix(1,0,0,1,859.3900146484375,720.7160034179688)"><path fill="rgb(245,158,196)" fill-opacity="1" d=" M2.9549999237060547,-2.5280001163482666 C2.9549999237060547,-2.5280001163482666 2.9549999237060547,3.446000099182129 2.9549999237060547,3.446000099182129 C2.9549999237060547,5.077000141143799 1.6339999437332153,6.395999908447266 0,6.395999908447266 C-1.093000054359436,6.395999908447266 -2.0460000038146973,5.802000045776367 -2.555000066757202,4.914999961853027 C-2.630000114440918,4.796000003814697 -2.694000005722046,4.666999816894531 -2.749000072479248,4.526000022888184 C-2.878000020980835,4.190999984741211 -2.9549999237060547,3.8239998817443848 -2.9549999237060547,3.446000099182129 C-2.9549999237060547,3.446000099182129 -2.9549999237060547,-5.834000110626221 -2.9549999237060547,-5.834000110626221 C-2.9549999237060547,-6.017000198364258 -2.933000087738037,-6.202000141143799 -2.9010000228881836,-6.375 C-2.9010000228881836,-6.375 -2.868000030517578,-6.395999908447266 -2.868000030517578,-6.395999908447266 C-2.868000030517578,-6.395999908447266 -1.8289999961853027,-5.359000205993652 -1.8289999961853027,-5.359000205993652 C-1.8289999961853027,-5.359000205993652 1.7640000581741333,-2.950000047683716 1.7640000581741333,-2.950000047683716 C2.1540000438690186,-2.7880001068115234 2.555000066757202,-2.6470000743865967 2.9549999237060547,-2.5280001163482666"></path></g><g opacity="1" transform="matrix(1,0,0,1,855.4829711914062,718.9119873046875)"><path fill="rgb(245,158,196)" fill-opacity="1" d=" M0.7900000214576721,6.623000144958496 C-0.4000000059604645,6.2779998779296875 -1.2769999504089355,5.2179999351501465 -1.3420000076293945,3.931999921798706 C-1.3530000448226929,3.890000104904175 -1.3519999980926514,3.8359999656677246 -1.3519999980926514,3.7820000648498535 C-1.3519999980926514,3.7820000648498535 -1.3519999980926514,-5.5 -1.3519999980926514,-5.5 C-1.3519999980926514,-5.932000160217285 -1.2669999599456787,-6.3420000076293945 -1.093000054359436,-6.71999979019165 C-1.093000054359436,-6.71999979019165 1.0390000343322754,-4.5920000076293945 1.0390000343322754,-4.5920000076293945 C1.0390000343322754,-4.5920000076293945 1.00600004196167,-4.570000171661377 1.00600004196167,-4.570000171661377 C0.9739999771118164,-4.396999835968018 0.9520000219345093,-4.214000225067139 0.9520000219345093,-4.031000137329102 C0.9520000219345093,-4.031000137329102 0.9520000219345093,5.250999927520752 0.9520000219345093,5.250999927520752 C0.9520000219345093,5.629000186920166 1.0290000438690186,5.994999885559082 1.1579999923706055,6.330999851226807 C1.2130000591278076,6.4710001945495605 1.2769999504089355,6.60099983215332 1.3519999980926514,6.71999979019165 C1.156999945640564,6.697999954223633 0.9739999771118164,6.665999889373779 0.7900000214576721,6.623000144958496"></path></g><g opacity="1" transform="matrix(1,0,0,1,853.0850219726562,716.291015625)"><path fill="rgb(245,158,196)" fill-opacity="1" d=" M-0.47099998593330383,-5.872000217437744 C-0.47099998593330383,-5.872000217437744 1.3040000200271606,-4.098999977111816 1.3040000200271606,-4.098999977111816 C1.1299999952316284,-3.7209999561309814 1.0449999570846558,-3.311000108718872 1.0449999570846558,-2.878999948501587 C1.0449999570846558,-2.878999948501587 1.0449999570846558,6.401000022888184 1.0449999570846558,6.401000022888184 C1.0449999570846558,6.454999923706055 1.0440000295639038,6.510000228881836 1.0549999475479126,6.552999973297119 C1.0549999475479126,6.552999973297119 1.0449999570846558,6.552999973297119 1.0449999570846558,6.552999973297119 C-0.296999990940094,6.271999835968018 -1.3040000200271606,5.083000183105469 -1.3040000200271606,3.6679999828338623 C-1.3040000200271606,3.6679999828338623 -1.3040000200271606,-5.611999988555908 -1.3040000200271606,-5.611999988555908 C-1.3040000200271606,-5.935999870300293 -1.25,-6.25 -1.152999997138977,-6.552999973297119 C-1.152999997138977,-6.552999973297119 -0.47099998593330383,-5.872000217437744 -0.47099998593330383,-5.872000217437744z"></path></g><g opacity="1" transform="matrix(1,0,0,1,854.260009765625,717.4420166015625)"><path fill="rgb(35,31,32)" fill-opacity="1" d=" M-0.12999999523162842,5.48799991607666 C-0.26100000739097595,5.48799991607666 -0.36800000071525574,5.38100004196167 -0.36800000071525574,5.25 C-0.36800000071525574,5.25 -0.36800000071525574,-4.03000020980835 -0.36800000071525574,-4.03000020980835 C-0.36800000071525574,-4.498000144958496 -0.2720000147819519,-4.941999912261963 -0.0860000029206276,-5.349999904632568 C-0.03099999949336052,-5.46999979019165 0.10999999940395355,-5.520999908447266 0.2290000021457672,-5.4670000076293945 C0.3490000069141388,-5.4120001792907715 0.4009999930858612,-5.270999908447266 0.34599998593330383,-5.151000022888184 C0.1889999955892563,-4.806000232696533 0.10899999737739563,-4.427999973297119 0.10899999737739563,-4.03000020980835 C0.10899999737739563,-4.03000020980835 0.10899999737739563,5.25 0.10899999737739563,5.25 C0.10899999737739563,5.38100004196167 0.0010000000474974513,5.48799991607666 -0.12999999523162842,5.48799991607666"></path></g><g opacity="1" transform="matrix(1,0,0,1,856.5380249023438,719.7919921875)"><path fill="rgb(35,31,32)" fill-opacity="1" d=" M0.10300000011920929,5.688000202178955 C0.007000000216066837,5.688000202178955 -0.0820000022649765,5.63100004196167 -0.11900000274181366,5.5370001792907715 C-0.2669999897480011,5.1579999923706055 -0.3409999907016754,4.765999794006348 -0.3409999907016754,4.370999813079834 C-0.3409999907016754,4.370999813079834 -0.3409999907016754,-4.909999847412109 -0.3409999907016754,-4.909999847412109 C-0.3409999907016754,-5.0920000076293945 -0.32199999690055847,-5.289000034332275 -0.28200000524520874,-5.49399995803833 C-0.257999986410141,-5.623000144958496 -0.13199999928474426,-5.706999778747559 -0.004000000189989805,-5.684000015258789 C0.125,-5.658999919891357 0.20999999344348907,-5.534999847412109 0.1850000023841858,-5.406000137329102 C0.15199999511241913,-5.230000019073486 0.13500000536441803,-5.061999797821045 0.13500000536441803,-4.909999847412109 C0.13500000536441803,-4.909999847412109 0.13500000536441803,4.370999813079834 0.13500000536441803,4.370999813079834 C0.13500000536441803,4.705999851226807 0.19900000095367432,5.039999961853027 0.32499998807907104,5.363999843597412 C0.3720000088214874,5.486999988555908 0.31200000643730164,5.625 0.1899999976158142,5.672999858856201 C0.16099999845027924,5.683000087738037 0.13199999928474426,5.688000202178955 0.10300000011920929,5.688000202178955"></path></g><g opacity="1" transform="matrix(1,0,0,1,861.7490234375,717.9769897460938)"><path fill="rgb(35,31,32)" fill-opacity="1" d=" M0.5950000286102295,0.4490000009536743 C0.5730000138282776,0.4490000009536743 0.550000011920929,0.44600000977516174 0.527999997138977,0.43799999356269836 C0.1080000028014183,0.3140000104904175 -0.3009999990463257,0.17000000178813934 -0.6859999895095825,0.008999999612569809 C-0.8090000152587891,-0.04100000113248825 -0.8650000095367432,-0.18000000715255737 -0.8149999976158142,-0.3019999861717224 C-0.7639999985694885,-0.42500001192092896 -0.6259999871253967,-0.4819999933242798 -0.5040000081062317,-0.4300000071525574 C-0.1340000033378601,-0.2770000100135803 0.25999999046325684,-0.1379999965429306 0.6629999876022339,-0.017000000923871994 C0.7889999747276306,0.020999999716877937 0.8610000014305115,0.15299999713897705 0.8240000009536743,0.27900001406669617 C0.7929999828338623,0.38199999928474426 0.6970000267028809,0.4490000009536743 0.5950000286102295,0.4490000009536743"></path></g><g opacity="1" transform="matrix(1,0,0,1,855.0880126953125,712.8889770507812)"><path fill="rgb(35,31,32)" fill-opacity="1" d=" M2.4730000495910645,2.7060000896453857 C2.4119999408721924,2.7060000896453857 2.3510000705718994,2.683000087738037 2.305000066757202,2.63700008392334 C2.305000066757202,2.63700008392334 -2.6410000324249268,-2.299999952316284 -2.6410000324249268,-2.299999952316284 C-2.734999895095825,-2.3929998874664307 -2.734999895095825,-2.5439999103546143 -2.6410000324249268,-2.63700008392334 C-2.5480000972747803,-2.7300000190734863 -2.3980000019073486,-2.7300000190734863 -2.305000066757202,-2.63700008392334 C-2.305000066757202,-2.63700008392334 2.6410000324249268,2.299999952316284 2.6410000324249268,2.299999952316284 C2.734999895095825,2.3929998874664307 2.734999895095825,2.5429999828338623 2.6410000324249268,2.63700008392334 C2.5950000286102295,2.683000087738037 2.5339999198913574,2.7060000896453857 2.4730000495910645,2.7060000896453857"></path></g></g></g></svg>

