<svg xmlns="http://www.w3.org/2000/svg" viewBox="0 0 1440 320">
  <path fill="#0099ff" fill-opacity="1" d="M0,96L13.3,85.3C26.7,75,53,53,80,69.3C106.7,85,133,139,160,149.3C186.7,160,213,128,240,122.7C266.7,117,293,139,320,122.7C346.7,107,373,53,400,26.7C426.7,0,453,0,480,37.3C506.7,75,533,149,560,181.3C586.7,213,613,203,640,192C666.7,181,693,171,720,170.7C746.7,171,773,181,800,181.3C826.7,181,853,171,880,181.3C906.7,192,933,224,960,218.7C986.7,213,1013,171,1040,128C1066.7,85,1093,43,1120,53.3C1146.7,64,1173,128,1200,144C1226.7,160,1253,128,1280,106.7C1306.7,85,1333,75,1360,85.3C1386.7,96,1413,128,1427,144L1440,160L1440,320L1426.7,320C1413.3,320,1387,320,1360,320C1333.3,320,1307,320,1280,320C1253.3,320,1227,320,1200,320C1173.3,320,1147,320,1120,320C1093.3,320,1067,320,1040,320C1013.3,320,987,320,960,320C933.3,320,907,320,880,320C853.3,320,827,320,800,320C773.3,320,747,320,720,320C693.3,320,667,320,640,320C613.3,320,587,320,560,320C533.3,320,507,320,480,320C453.3,320,427,320,400,320C373.3,320,347,320,320,320C293.3,320,267,320,240,320C213.3,320,187,320,160,320C133.3,320,107,320,80,320C53.3,320,27,320,13,320L0,320Z"></path>
</svg>